<svg width="32" height="33" viewBox="0 0 32 33" fill="none" xmlns="http://www.w3.org/2000/svg">
<path d="M16.0009 31.7283C24.592 31.7283 31.5564 24.7638 31.5564 16.1727C31.5564 7.58165 24.592 0.617188 16.0009 0.617188C7.40977 0.617188 0.445312 7.58165 0.445312 16.1727C0.445312 24.7638 7.40977 31.7283 16.0009 31.7283Z" fill="#6693C1"/>
<path d="M19.8711 26.1719H12.1289C11.676 26.1719 11.2956 25.8314 11.2453 25.3812L10 14.1719H22L20.7547 25.3812C20.7044 25.8314 20.324 26.1719 19.8711 26.1719Z" fill="#C6DFF1"/>
<path d="M22.2205 12.8398C21.896 12.8398 10.1005 12.8398 9.77604 12.8398C9.40804 12.8398 9.10938 13.1385 9.10938 13.5065C9.10938 13.8745 9.40804 14.1732 9.77604 14.1732C10.1005 14.1732 21.896 14.1732 22.2205 14.1732C22.5885 14.1732 22.8872 13.8745 22.8872 13.5065C22.8872 13.1385 22.5885 12.8398 22.2205 12.8398Z" fill="white"/>
<path d="M14.1404 4.83992L10.8906 8.08984L13.4183 10.6175L16.6681 7.36755L14.1404 4.83992Z" fill="white"/>
<path d="M19.5547 7.94917L17.5547 9.94922L19.1103 11.5048L21.1103 9.50478L19.5547 7.94917Z" fill="white"/>
<path d="M16 32.1719C7.17733 32.1719 0 24.9945 0 16.1719C0 7.34921 7.17733 0.171875 16 0.171875C24.8227 0.171875 32 7.34921 32 16.1719C32 24.9945 24.8227 32.1719 16 32.1719ZM16 1.06076C7.66756 1.06076 0.888889 7.83943 0.888889 16.1719C0.888889 24.5043 7.66756 31.283 16 31.283C24.3324 31.283 31.1111 24.5043 31.1111 16.1719C31.1111 7.83943 24.3324 1.06076 16 1.06076Z" fill="#1F212B"/>
<path d="M22.8886 4.71908C22.8504 4.71908 22.8113 4.70931 22.7757 4.68842C22.4926 4.52131 22.1984 4.36219 21.9011 4.21464C21.7908 4.15997 21.746 4.02664 21.8006 3.91642C21.8548 3.80664 21.9886 3.76175 22.0984 3.81597C22.4055 3.96842 22.7095 4.13331 23.0015 4.30575C23.1073 4.36842 23.142 4.50442 23.0797 4.61019C23.0384 4.67997 22.9642 4.71908 22.8886 4.71908Z" fill="#1F212B"/>
<path d="M24.2211 5.61766C24.174 5.61766 24.1269 5.60299 24.0865 5.57188C23.9429 5.4621 23.7971 5.35544 23.6491 5.25144C23.5487 5.18077 23.5247 5.0421 23.5949 4.9421C23.6651 4.84166 23.8038 4.81766 23.9047 4.88788C24.0571 4.99499 24.2082 5.10521 24.3562 5.21855C24.4536 5.29321 24.4722 5.43232 24.3976 5.5301C24.354 5.58788 24.2878 5.61766 24.2211 5.61766Z" fill="#1F212B"/>
<path d="M16.0004 29.9501C8.40354 29.9501 2.22266 23.7696 2.22266 16.1723C2.22266 8.57498 8.40354 2.39453 16.0004 2.39453C17.6298 2.39453 19.2253 2.67675 20.7435 3.2332C20.8587 3.27586 20.9182 3.40342 20.8755 3.51853C20.8338 3.63453 20.7058 3.69364 20.5907 3.65098C19.1218 3.11186 17.5773 2.83898 16.0004 2.83898C8.64843 2.83898 2.6671 8.82031 2.6671 16.1723C2.6671 23.5243 8.64843 29.5056 16.0004 29.5056C23.3524 29.5056 29.3338 23.5243 29.3338 16.1723C29.3338 12.4216 27.7404 8.82298 24.9622 6.29987C24.8711 6.2172 24.8644 6.07675 24.9471 5.98609C25.0302 5.89542 25.1702 5.88875 25.2609 5.97098C28.1315 8.57809 29.7782 12.2963 29.7782 16.1723C29.7782 23.7696 23.5973 29.9501 16.0004 29.9501Z" fill="#1F212B"/>
<path d="M19.8707 26.3937H12.1285C11.5618 26.3937 11.0867 25.9688 11.0241 25.4052L9.77873 14.1959C9.77162 14.1328 9.79207 14.0701 9.83429 14.023C9.87607 13.9763 9.93651 13.9492 9.99962 13.9492H21.9996C22.0627 13.9492 22.1232 13.9763 22.1654 14.0234C22.2076 14.0701 22.2276 14.1332 22.221 14.1963L20.9756 25.4057C20.9125 25.9688 20.4374 26.3937 19.8707 26.3937ZM10.2481 14.3937L11.4663 25.3559C11.5036 25.6941 11.7885 25.9492 12.1285 25.9492H19.8707C20.2107 25.9492 20.4956 25.6941 20.5334 25.3559L21.7512 14.3937H10.2481Z" fill="#1F212B"/>
<path d="M22.224 14.395H9.77951C9.28929 14.395 8.89062 13.9963 8.89062 13.5061C8.89062 13.0159 9.28929 12.6172 9.77951 12.6172H22.224C22.7142 12.6172 23.1128 13.0159 23.1128 13.5061C23.1128 13.9963 22.7142 14.395 22.224 14.395ZM9.77951 13.0616C9.53462 13.0616 9.33507 13.2607 9.33507 13.5061C9.33507 13.7514 9.53462 13.9505 9.77951 13.9505H22.224C22.4688 13.9505 22.6684 13.7514 22.6684 13.5061C22.6684 13.2607 22.4688 13.0616 22.224 13.0616H9.77951Z" fill="#1F212B"/>
<path d="M13.4183 10.8395C13.3614 10.8395 13.3045 10.8177 13.261 10.7746L10.733 8.24663C10.6463 8.15997 10.6463 8.01908 10.733 7.93241L13.9832 4.68219C14.0699 4.59552 14.2107 4.59552 14.2974 4.68219L16.8254 7.21019C16.9121 7.29685 16.9121 7.43774 16.8254 7.52441L13.5752 10.7746C13.5316 10.8177 13.4747 10.8395 13.4183 10.8395ZM11.2045 8.08974L13.4179 10.3031L16.3534 7.36752L14.1401 5.15419L11.2045 8.08974Z" fill="#1F212B"/>
<path d="M19.1099 11.7262C19.053 11.7262 18.9961 11.7045 18.9526 11.6613L17.397 10.1058C17.3104 10.0191 17.3104 9.87823 17.397 9.79156L19.397 7.79156C19.4837 7.7049 19.6246 7.7049 19.7113 7.79156L21.2668 9.34712C21.3535 9.43378 21.3535 9.57467 21.2668 9.66134L19.2668 11.6613C19.2237 11.7045 19.1668 11.7262 19.1099 11.7262ZM17.8686 9.94845L19.1099 11.1898L20.7957 9.50401L19.5544 8.26267L17.8686 9.94845Z" fill="#1F212B"/>
<path d="M14.2176 14.1631L13.7734 14.1797L14.2227 26.1797L14.6668 26.1631L14.2176 14.1631Z" fill="#1F212B"/>
<path d="M17.7775 14.1639L17.332 26.1641L17.7762 26.1806L18.2216 14.1804L17.7775 14.1639Z" fill="#1F212B"/>
<path d="M21.5564 17.9492H10.4453V18.3937H21.5564V17.9492Z" fill="#1F212B"/>
<path d="M21.1128 21.9492H10.8906V22.3937H21.1128V21.9492Z" fill="#1F212B"/>
</svg>
