<svg width="53" height="48" viewBox="0 0 53 48" fill="none" xmlns="http://www.w3.org/2000/svg">
<g clip-path="url(#clip0_1158_1863)">
<path d="M24.4102 24.2826C25.554 23.0427 29.0502 19.6048 30.5864 17.9414C31.4835 16.9675 33.5767 14.7866 33.5767 14.7866L33.5892 14.7741L33.801 14.5284C33.9639 14.3461 34.1454 14.1782 34.343 14.0268L34.5149 13.8965L34.5809 13.8569L34.6482 13.8184C34.6794 13.8003 34.7118 13.7844 34.7429 13.7686C34.757 13.7607 34.7716 13.7536 34.7865 13.7471C34.8164 13.7312 34.8451 13.7176 34.8762 13.704L34.946 13.6723C35.1861 13.5692 35.4412 13.4979 35.7035 13.4606C35.8409 13.442 35.9796 13.4326 36.1184 13.4323C37.1576 13.4323 38.0858 13.9713 38.6888 14.8126C39.9622 11.5288 32.1152 7.50432 28.3474 11.9568L16.8984 24.8126L18.3362 26.3526C18.3362 26.3526 21.7365 27.1758 24.4003 24.2872" fill="black"/>
<path d="M24.4102 24.2826C25.554 23.0427 29.0502 19.6048 30.5864 17.9414C31.4835 16.9675 33.5767 14.7866 33.5767 14.7866L33.5892 14.7741L33.801 14.5284C33.9639 14.3461 34.1454 14.1782 34.343 14.0268L34.5149 13.8965L34.5809 13.8569L34.6482 13.8184C34.6794 13.8003 34.7118 13.7844 34.7429 13.7686C34.757 13.7607 34.7716 13.7536 34.7865 13.7471C34.8164 13.7312 34.8451 13.7176 34.8762 13.704L34.946 13.6723C35.1861 13.5692 35.4412 13.4979 35.7035 13.4606C35.8409 13.442 35.9796 13.4326 36.1184 13.4323C37.1576 13.4323 38.0858 13.9713 38.6888 14.8126C39.9622 11.5288 32.1152 7.50432 28.3474 11.9568L16.8984 24.8126L18.3362 26.3526C18.3362 26.3526 21.7365 27.1758 24.4003 24.2872" stroke="#0B82F9" stroke-width="0.516432" stroke-miterlimit="10"/>
<path d="M14.9429 21.5102C15.7914 19.7992 15.8437 19.9759 16.6872 18.2649C17.0544 17.5243 17.4211 16.7837 17.7874 16.0432C19.3889 12.8129 20.9887 9.58224 22.5868 6.35122C22.6663 6.25147 22.7391 6.14749 22.8049 6.03982C22.8248 6.01037 22.8422 5.98093 22.8597 5.95035C22.9725 5.7553 23.0623 5.54996 23.1276 5.33775C23.1475 5.27773 23.1649 5.21658 23.1786 5.15544C23.1911 5.12826 23.2048 5.10221 23.2185 5.07503C23.2347 5.04786 23.2522 5.02181 23.2696 4.99463C23.287 4.96746 23.3107 4.93235 23.3331 4.90178C23.3556 4.8712 23.3768 4.84176 23.3992 4.81119L23.4677 4.72287C23.4914 4.69343 23.515 4.66398 23.54 4.63567C23.5649 4.60737 23.5749 4.59378 23.5948 4.57226L23.601 4.56433L23.6546 4.50658L23.7069 4.4511L23.7717 4.38655C23.7941 4.3639 23.8178 4.34013 23.8427 4.31861C23.8677 4.2971 23.9001 4.26539 23.9287 4.24048C23.9574 4.21557 23.9848 4.19179 24.0134 4.16801C24.0421 4.14423 24.0707 4.12045 24.1006 4.0978C24.1305 4.07515 24.1592 4.05137 24.1903 4.02873L24.2813 3.96305L24.3748 3.89963C24.4296 3.8634 24.4856 3.8283 24.543 3.79546C24.5754 3.77508 24.609 3.75582 24.6439 3.73771C24.6862 3.71393 24.7274 3.69128 24.7685 3.66977L24.8507 3.63013L24.9342 3.59163L25.0501 3.54068L25.1049 3.51916C25.141 3.50331 25.1772 3.48972 25.2145 3.47613L25.3018 3.44442C25.6027 3.33974 25.9165 3.26827 26.2362 3.23153C26.4057 3.21294 26.5763 3.20349 26.747 3.20323C27.3584 3.19913 27.9629 3.32076 28.5153 3.55902C29.0677 3.79728 29.5536 4.14599 29.9367 4.57906C30.2425 5.03502 30.4995 5.5166 30.7042 6.01717C30.8616 6.40513 30.9865 6.80335 31.0779 7.20842C29.6293 10.133 28.1807 13.0582 26.7321 15.9843C25.6107 18.249 24.4894 20.5138 23.368 22.7785C23.2684 22.9778 23.1695 23.1771 23.0715 23.3764C22.9344 23.6519 22.7982 23.9275 22.6628 24.203C21.9701 25.6015 20.4862 26.5719 18.8004 26.6387C18.7294 26.6387 18.6583 26.6387 18.5873 26.6387C17.289 26.6387 15.9821 26.4564 15.1161 25.6966C14.5604 25.2097 13.8278 24.3785 14.0421 23.5451L14.9429 21.5102Z" fill="#0B82F9"/>
<path d="M20.6363 3.78148C24.3966 -0.670995 32.2435 3.35118 30.9714 6.63731C30.3684 5.79596 29.4401 5.25696 28.3998 5.25696C28.2613 5.25725 28.1231 5.26671 27.9861 5.28526C27.7239 5.32299 27.4688 5.39428 27.2286 5.49702L27.1576 5.52873C27.1277 5.54232 27.099 5.5559 27.0691 5.57176L27.0243 5.59327L26.9308 5.64422L26.8635 5.68159L26.7963 5.72122L26.6255 5.85258C26.4274 6.00301 26.2459 6.17064 26.0836 6.35309L25.863 6.59994L25.8493 6.6124C25.8493 6.6124 23.7636 8.79335 22.859 9.76832L18.249 14.7655C17.1053 16.005 15.9615 17.2457 14.8177 18.4876L14.7778 18.5317L13.806 19.5848C13.6299 19.7019 13.4387 19.7989 13.2366 19.8736C12.9437 19.9817 12.6307 20.0375 12.3146 20.0378C10.6799 20.0378 9.35547 18.5589 9.35547 16.7335C9.35547 16.6735 9.35547 16.6135 9.35547 16.5535C9.36496 16.3372 9.39455 16.122 9.44393 15.9103L11.6567 13.5097C11.6804 13.4836 11.7041 13.4564 11.729 13.4304L14.8102 10.0888L15.1354 9.73547L20.797 3.59464" fill="black"/>
<path d="M20.6363 3.78148C24.3966 -0.670994 32.2435 3.35118 30.9714 6.63731C30.3684 5.79596 29.4401 5.25696 28.3998 5.25696C28.2613 5.25725 28.1231 5.26671 27.9861 5.28526C27.7239 5.32299 27.4688 5.39428 27.2286 5.49702L27.1576 5.52873C27.1277 5.54232 27.099 5.5559 27.0691 5.57176L27.0243 5.59327L26.9308 5.64422L26.8635 5.68159L26.7963 5.72122L26.6255 5.85258C26.4274 6.00301 26.2459 6.17064 26.0836 6.35309L25.863 6.59994L25.8493 6.6124C25.8493 6.6124 23.7636 8.79335 22.859 9.76832L18.249 14.7655C17.1053 16.005 15.9615 17.2457 14.8177 18.4876L14.7778 18.5317L13.806 19.5848C13.6299 19.7019 13.4387 19.7989 13.2366 19.8736C12.9437 19.9817 12.6307 20.0375 12.3146 20.0378C10.6799 20.0378 9.35547 18.5589 9.35547 16.7335C9.35547 16.6735 9.35547 16.6135 9.35547 16.5535C9.36496 16.3372 9.39455 16.122 9.44393 15.9103L11.6567 13.5097C11.6804 13.4836 11.7041 13.4564 11.729 13.4304L14.8102 10.0888L15.1354 9.73547L20.797 3.59464" stroke="#0B82F9" stroke-width="0.516432" stroke-miterlimit="10"/>
<path d="M10.1106 16.577C10.1106 18.4103 11.4412 19.896 13.0821 19.896C13.4 19.896 13.7148 19.8399 14.0091 19.7307C12.8803 20.6366 10.6862 21.3681 8.23914 21.3681C5.7921 21.3681 2.33582 18.9108 3.52197 14.4946C3.52197 14.4946 3.81352 13.4245 4.02035 12.9093C4.85015 10.8518 5.80704 8.82597 6.63684 6.76845L6.85737 6.22266H13.9892C13.887 6.47631 13.7849 6.73109 13.6814 6.98474C12.8915 8.94827 11.6032 11.7724 10.8369 13.4245C10.4503 14.269 10.2054 15.1614 10.1106 16.072V16.577Z" fill="#0B82F9"/>
<path d="M10.2619 5.55993C11.9513 5.55993 13.3207 4.3153 13.3207 2.77997C13.3207 1.24463 11.9513 0 10.2619 0C8.5726 0 7.20312 1.24463 7.20312 2.77997C7.20312 4.3153 8.5726 5.55993 10.2619 5.55993Z" fill="#0B82F9"/>
<path d="M38.6593 18.6645C36.1064 24.3025 29.7495 37.643 29.1465 38.9543C29.1216 39.0097 29.0992 39.0675 29.0767 39.1196C29.0107 39.286 28.8425 39.6031 28.703 39.8737V39.8805C27.0334 43.9842 23.1174 47.0258 18.3865 47.6452C17.894 47.7105 17.3976 47.7483 16.9001 47.7584C16.7618 47.7584 14.5589 45.565 14.4219 45.5503C14.4431 45.5073 14.6848 45.3974 15.0636 45.2106C17.2985 44.084 19.0585 42.3148 20.0673 40.1806C20.3165 39.6469 20.569 39.1143 20.8248 38.5828C20.8704 38.4143 20.9325 38.2498 21.0105 38.0914L24.5427 30.9575L24.7844 30.4694C25.7189 28.5818 30.4448 19.2895 31.4366 17.2898L31.3256 17.275C31.6309 15.384 35.6939 12.0662 37.7747 12.3402C39.9464 11.9892 39.0493 17.8152 38.6593 18.6645Z" fill="#0B82F9"/>
<path d="M50.1596 20.7578C50.1596 20.7578 24.2289 34.9124 17.4334 40.3285C17.0128 40.6571 16.7006 41.0851 16.5314 41.5651C15.9383 43.3203 17.5369 45.0358 21.8815 46.3709C14.5802 49.5336 10.5147 46.8736 9.56405 43.2874C8.7953 40.3931 10.2443 37.3833 13.034 35.8217C19.275 32.3261 39.1192 21.581 40.0711 20.7997C44.8032 20.7578 50.1596 20.7578 50.1596 20.7578Z" fill="black" stroke="#0B82F9" stroke-width="0.516432" stroke-miterlimit="10"/>
</g>
<defs>
<clipPath id="clip0_1158_1863">
<rect width="53" height="48" fill="white" transform="translate(-0.332031)"/>
</clipPath>
</defs>
</svg>
