<svg width="54" height="54" viewBox="0 0 54 54" fill="none" xmlns="http://www.w3.org/2000/svg">
<g clip-path="url(#clip0_1158_1891)">
<path d="M31.7056 35.9062L31.6562 35.955V35.9496C31.6628 35.9301 31.6826 35.9214 31.7056 35.9062Z" fill="#CC2929"/>
<path d="M46.2084 27.5143L46.1523 27.5685C46.1691 27.5479 46.186 27.5284 46.2016 27.5078L46.2084 27.5143Z" fill="#CC2929"/>
<path d="M46.2029 27.5078C46.1875 27.5283 46.1711 27.5479 46.1547 27.5684L45.9784 27.7429L26.1995 47.3062L26.1732 47.3322C26.1448 47.356 26.1184 47.3821 26.0943 47.4102C25.5215 48.0604 26.4503 49.0961 27.1787 48.538L40.1711 35.687L40.1853 35.701C43.3704 33.2838 47.1536 37.2049 45.3157 40.1433C45.2437 40.3287 45.1315 40.4962 44.9871 40.6341L32.5424 52.9458C32.4184 53.0689 32.2711 53.1664 32.1088 53.2328C31.9466 53.2997 31.7727 53.3337 31.5971 53.3337C30.4558 53.3715 29.7986 51.8631 30.6519 51.0757L42.8425 39.0165L42.8272 38.9981C43.6005 38.3729 42.6344 37.1963 41.8655 37.7532L28.9815 50.4959L28.5719 50.091L28.9443 50.524C28.3222 51.0466 27.5325 51.3332 26.7165 51.3322C23.619 51.4321 22.0472 47.3236 24.3824 45.3614L44.1273 25.8327C44.5523 25.1068 43.4701 24.227 42.8381 24.9388L42.8119 24.915L31.7625 35.8451L31.7066 35.9015C31.6891 35.9166 31.6694 35.9297 31.6519 35.9448C31.0401 36.4117 30.2888 36.6644 29.516 36.6632C26.4229 36.7802 24.7931 32.6066 27.1842 30.6347L44.342 13.6652L44.33 13.6522C45.1032 13.0259 44.1394 11.859 43.3749 12.404L12.9573 42.4923L12.9968 42.5302C12.6704 42.8541 12.2825 43.1109 11.8554 43.2859C11.4284 43.4609 10.9705 43.5506 10.5082 43.5498C7.46658 43.6408 5.79845 39.6785 8.0208 37.608L30.5379 15.3435C31.2258 14.6089 30.0702 13.5655 29.3923 14.26L29.3594 14.2914L10.6506 32.7951C10.5266 32.9181 10.3792 33.0155 10.217 33.0819C10.0548 33.1483 9.88093 33.1823 9.70537 33.182C8.56517 33.2188 7.9058 31.7128 8.76013 30.925L27.5379 12.3499C27.5769 12.3109 27.6186 12.2747 27.6628 12.2415C30.7701 9.50351 35.4142 13.8104 32.5226 17.1085L32.4262 17.0229L32.5226 17.1183L9.8379 39.5583C9.2804 40.2278 10.1271 41.1618 10.8379 40.8487L41.5994 10.4191C45.0025 7.69522 49.1777 12.3694 46.3771 15.3587L46.3913 15.3727L28.9903 32.5925C28.9869 32.5949 28.9839 32.5978 28.9815 32.6012L28.9662 32.6131C28.2236 33.2545 29.1645 34.4074 29.9432 33.9036L41.0528 22.9149L41.0802 22.942C44.124 20.1617 48.6837 24.2281 46.2029 27.5078Z" fill="white"/>
<path d="M26.196 47.3066L26.1719 47.3279L26.1951 47.3047L26.196 47.3066Z" fill="#CC2929"/>
<path d="M46.1529 27.5664C46.1036 27.6303 46.051 27.6943 45.9952 27.7571L45.9766 27.7409L46.1529 27.5664Z" fill="#CC2929"/>
<path d="M31.7697 35.8542C31.7496 35.8715 31.7283 35.8878 31.707 35.904L31.7642 35.8477L31.7697 35.8542Z" fill="#CC2929"/>
<path d="M29.386 14.2578C29.3762 14.2687 29.3653 14.2796 29.3555 14.2916L29.386 14.2578Z" fill="#CC2929"/>
<path d="M35.7774 10.8196C38.7978 10.8196 41.2462 8.39757 41.2462 5.40984C41.2462 2.42206 38.7978 0 35.7774 0C32.7571 0 30.3086 2.42206 30.3086 5.40984C30.3086 8.39757 32.7571 10.8196 35.7774 10.8196Z" fill="#CC2929"/>
</g>
<defs>
<clipPath id="clip0_1158_1891">
<rect width="53.3333" height="53.3333" fill="white" transform="translate(0.332031)"/>
</clipPath>
</defs>
</svg>
