<svg width="37" height="48" viewBox="0 0 37 48" fill="none" xmlns="http://www.w3.org/2000/svg">
<g clip-path="url(#clip0_1158_1905)">
<path d="M12.6038 32.6672C13.7313 32.6672 14.6452 31.7658 14.6452 30.6538C14.6452 29.542 13.7313 28.6406 12.6038 28.6406C11.4764 28.6406 10.5625 29.542 10.5625 30.6538C10.5625 31.7658 11.4764 32.6672 12.6038 32.6672Z" fill="#596AD0"/>
<path d="M31.029 34.7377C31.029 34.2037 30.8139 33.6917 30.4311 33.3141C30.0482 32.9366 29.529 32.7245 28.9877 32.7245C28.9388 32.7245 28.8908 32.7245 28.8429 32.7294C28.582 32.8091 28.3181 32.8822 28.051 32.9486C24.5815 33.8047 20.9162 33.4122 17.714 31.8415C17.6466 31.8083 17.5794 31.7752 17.5128 31.7402H17.5078C17.2501 31.6294 16.9718 31.5729 16.6907 31.5742C16.2872 31.5741 15.8926 31.6919 15.5569 31.9128C15.2212 32.1336 14.9594 32.4478 14.8046 32.8153C14.6497 33.183 14.609 33.5874 14.6872 33.978C14.7655 34.3685 14.9594 34.7272 15.2443 35.0091C15.6112 35.2099 15.985 35.3988 16.3659 35.5759C20.2762 37.3845 24.6958 37.8202 28.8916 36.8108C28.9758 36.7916 29.0541 36.7709 29.1357 36.7501C29.4025 36.683 29.6666 36.6083 29.9293 36.5294C30.2613 36.3588 30.5396 36.1015 30.7335 35.7855C30.9275 35.4696 31.0297 35.1071 31.029 34.7377Z" fill="#94D69A"/>
<path d="M31.4474 2.80608C31.4473 2.4243 31.3308 2.05139 31.113 1.73584C30.895 1.42029 30.5859 1.17671 30.2256 1.03679C30.1415 1.00941 30.0574 0.982022 29.9665 0.953806C28.1621 0.405351 26.2843 0.127285 24.3961 0.128913C13.9791 0.128913 5.53518 8.45751 5.53518 18.7313C5.53067 21.5867 6.19562 24.4045 7.47807 26.9644C7.66908 27.3454 7.87355 27.7205 8.0898 28.0856C8.3798 28.3555 8.74361 28.5358 9.13629 28.604C9.52898 28.6724 9.93334 28.6257 10.2995 28.47C10.6656 28.3142 10.9774 28.0561 11.1965 27.7275C11.4155 27.3988 11.5322 27.0142 11.5322 26.621C11.532 26.4154 11.5003 26.2112 11.4379 26.0151C11.3066 25.7938 11.1818 25.568 11.0635 25.3379C9.74239 22.7739 9.209 19.8853 9.52872 17.0266C9.84845 14.1678 11.0074 11.4634 12.8633 9.24496C14.7193 7.02655 17.1915 5.39074 19.9766 4.53825C22.7618 3.68575 25.7386 3.65366 28.542 4.44591C28.8146 4.52308 29.0847 4.61189 29.3506 4.69984C29.4065 4.70553 29.4627 4.7083 29.5188 4.70815C30.0304 4.70815 30.521 4.50775 30.8826 4.15105C31.2442 3.79435 31.4474 3.31054 31.4474 2.80608Z" fill="#94D69A"/>
<path d="M27.8148 10.468C28.9422 10.468 29.8561 9.56658 29.8561 8.45468C29.8561 7.34278 28.9422 6.44141 27.8148 6.44141C26.6874 6.44141 25.7734 7.34278 25.7734 8.45468C25.7734 9.56658 26.6874 10.468 27.8148 10.468Z" fill="#94D69A"/>
<path d="M29.9643 28.9614C29.9643 28.6469 29.8941 28.3363 29.7585 28.0517C29.623 27.767 29.4256 27.5153 29.1803 27.3144C28.9349 27.1135 28.6477 26.9683 28.3391 26.8892C28.0304 26.8102 27.7079 26.7991 27.3945 26.8569C27.2229 26.9178 27.0487 26.9731 26.8719 27.0229C25.7306 27.346 24.5349 27.438 23.3565 27.2936C22.1782 27.1491 21.0417 26.7711 20.0153 26.1822C18.989 25.5933 18.0942 24.8058 17.3844 23.8669C16.6747 22.928 16.1649 21.8573 15.8856 20.7191C15.6064 19.5808 15.5634 18.3986 15.7594 17.2437C15.9555 16.0886 16.3864 14.9848 17.0262 13.9982C17.666 13.0117 18.5016 12.163 19.4826 11.5032C20.4635 10.8435 21.5697 10.3862 22.7346 10.159C22.9467 10.1184 23.1611 10.0843 23.3791 10.0594C23.8529 9.90748 24.2561 9.5939 24.5165 9.17502C24.7768 8.75613 24.8772 8.25943 24.7995 7.77412C24.7219 7.28881 24.4713 6.84672 24.0928 6.52727C23.7144 6.20781 23.2327 6.03194 22.7346 6.03125C22.6863 6.03125 22.6384 6.03291 22.5907 6.03622C22.4754 6.05199 22.3619 6.06942 22.2483 6.08768C20.5054 6.37427 18.84 7.00804 17.3536 7.95032C15.8673 8.89259 14.591 10.1236 13.603 11.5683C12.6149 13.013 11.9356 14.6412 11.6065 16.3532C11.2774 18.0654 11.3055 19.8257 11.6889 21.5269C12.0723 23.228 12.8031 24.8342 13.8367 26.2476C14.8703 27.661 16.1849 28.852 17.7005 29.7478C19.2162 30.6435 20.9009 31.2254 22.652 31.4579C24.4032 31.6905 26.1841 31.5687 27.8859 31.1C28.2628 30.9971 28.6325 30.8777 28.995 30.7415C29.2926 30.5465 29.5369 30.282 29.7059 29.9714C29.8751 29.6608 29.9639 29.3139 29.9643 28.9614Z" fill="#596AD0"/>
<path d="M4.12507 47.9994C3.27072 47.9994 2.53586 47.824 1.92049 47.4732C1.31452 47.1332 0.820788 46.6281 0.498444 46.0185C0.166915 45.3983 0.000871184 44.6791 0.000310221 43.8609C-0.00635245 43.2903 0.0943595 42.7236 0.297337 42.1895C0.484439 41.6993 0.77073 41.2517 1.13878 40.8741C1.5067 40.501 1.95144 40.2101 2.44303 40.021C2.97961 39.8168 3.55083 39.7157 4.12591 39.723C5.08965 39.723 5.88762 39.9394 6.51982 40.372C7.15203 40.8047 7.61005 41.4458 7.8939 42.2956L5.99728 43.0898C5.84622 42.7099 5.59705 42.3754 5.27449 42.1197C4.97381 41.8941 4.59067 41.7812 4.12507 41.7812C3.77214 41.7751 3.42381 41.8608 3.11533 42.0301C2.82105 42.1956 2.58368 42.4441 2.43376 42.7438C2.27395 43.0963 2.19135 43.4781 2.19135 43.8642C2.19135 44.2502 2.27395 44.6319 2.43376 44.9844C2.58248 45.2832 2.8203 45.53 3.11533 45.6915C3.42525 45.8561 3.77314 45.9388 4.12507 45.9314C4.59067 45.9314 4.97381 45.8208 5.27449 45.5994C5.59821 45.3471 5.84774 45.0143 5.99728 44.6351L7.8939 45.4301C7.6095 46.2799 7.15118 46.9208 6.51898 47.3529C5.88677 47.785 5.0888 48.0004 4.12507 47.9994Z" fill="white"/>
<path d="M12.066 45.4987H8.23828V43.5898H12.066V45.4987Z" fill="white"/>
<path d="M17.9201 47.8352H12.8242V39.875H14.9691V46.7712L14.3051 45.7754H17.9234L17.9201 47.8352Z" fill="white"/>
<path d="M20.762 47.8352H18.6172V39.875H20.762V47.8352Z" fill="white"/>
<path d="M26.8782 47.8352L23.0739 42.5239L23.8793 42.314V47.8309H21.7344V39.875H23.7371L27.5303 45.1812L26.7241 45.3919V39.875H28.8808V47.8352H26.8782Z" fill="white"/>
<path d="M29.8555 47.8352V39.875H32.0004V47.8352H29.8555ZM34.205 47.8352L31.254 44.0475V43.6742L34.3472 39.875H37.0019L33.6007 44.0475V43.6625L36.9547 47.8352H34.205Z" fill="white"/>
</g>
<defs>
<clipPath id="clip0_1158_1905">
<rect width="37" height="48" fill="white"/>
</clipPath>
</defs>
</svg>
