<svg width="48" height="37" viewBox="0 0 48 37" fill="none" xmlns="http://www.w3.org/2000/svg">
<g clip-path="url(#clip0_1158_1847)">
<path d="M31.9441 1.9149L29.8918 4.46564H16.158L11.1903 10.6378L7.80835 14.8415L5.94741 17.1522H19.6803L16.2109 21.4635V21.469H2.63197C0.422896 21.469 -0.796467 18.8824 0.596053 17.1522L2.44515 14.8526L5.82711 10.6498L10.8057 4.46288L14.4 -0.003906H31.041C31.2614 -0.00405198 31.4773 0.0589353 31.6637 0.177734C31.8501 0.296532 31.9992 0.466266 32.0938 0.667215C32.1884 0.868163 32.2245 1.09207 32.198 1.31293C32.1715 1.53379 32.0835 1.74253 31.9441 1.9149Z" fill="#E14446"/>
<path d="M29.3895 21.4646L32.8116 21.4701L32.8161 21.4646L36.2856 17.1514L38.2113 14.7598L42.9219 8.90587H26.3147L29.8889 4.46484H45.2951C47.5679 4.46484 48.8228 7.12597 47.3911 8.90587L42.6895 14.7478L40.753 17.1514L37.2835 21.4646V21.4701L33.8141 25.7823H15.7405C15.4699 25.7824 15.2049 25.705 14.9761 25.5593C14.7473 25.4135 14.5641 25.2053 14.4478 24.9587C14.3314 24.7122 14.2866 24.4374 14.3187 24.1663C14.3507 23.8951 14.4581 23.6386 14.6286 23.4266L16.2034 21.4747H24.0318" fill="#E14446"/>
<path d="M38.2931 10.5664L34.9111 14.7692L32.9682 17.1617L28.2985 19.2608L27.4856 17.1507L29.3939 14.783L21.7023 14.8042L11.5391 14.8308L14.921 10.628L25.0842 10.6014L32.929 10.5802L38.2931 10.5664Z" fill="#E14446"/>
<path d="M29.6418 4L16 20.5407" stroke="#E14446" stroke-width="4.16667" stroke-miterlimit="10"/>
<path d="M4.3844 37.0011C3.52228 37.0011 2.76283 36.8113 2.10607 36.4317C1.46241 36.0654 0.934007 35.5234 0.581404 34.868C0.214717 34.173 0.0296558 33.3952 0.0437139 32.6079C0.0365203 31.9829 0.145326 31.362 0.364506 30.7774C0.564975 30.244 0.869971 29.7569 1.26126 29.3452C1.65036 28.9416 2.11879 28.6245 2.63646 28.4143C3.19195 28.1892 3.78583 28.0764 4.3844 28.0823C5.36439 28.0823 6.17396 28.2911 6.81311 28.7087C7.47162 29.1477 7.98934 29.7706 8.30314 30.5015L6.63358 31.1729C6.40196 30.7626 6.06879 30.42 5.66665 30.1786C5.27293 29.9652 4.83117 29.8584 4.3844 29.8686C3.93669 29.8606 3.49538 29.9767 3.10853 30.2043C2.73406 30.4299 2.42971 30.7568 2.23001 31.1481C2.00738 31.6011 1.89907 32.1025 1.91469 32.6079C1.90497 33.09 2.01493 33.5668 2.23456 33.995C2.43574 34.3836 2.73989 34.7081 3.11309 34.9324C3.49975 35.1604 3.94119 35.2766 4.38896 35.2681C4.7979 35.277 5.20335 35.1904 5.57369 35.0152C5.90964 34.8518 6.1958 34.6002 6.4021 34.2866C6.61548 33.9556 6.73696 33.5728 6.75387 33.1782L7.28063 33.8221H4.24953V32.1664H8.41706C8.4513 32.3081 8.47626 32.4519 8.49179 32.5969C8.50906 32.7496 8.51758 32.9031 8.5173 33.0568C8.52443 33.6133 8.4109 34.1645 8.18467 34.672C7.96928 35.1448 7.66183 35.569 7.28063 35.9194C6.89884 36.2701 6.45355 36.543 5.96921 36.7233C5.46179 36.9113 4.92492 37.0054 4.3844 37.0011Z" fill="#E14446"/>
<path d="M12.3462 36.9997C11.7596 37.0121 11.1799 36.8704 10.6639 36.5885C10.1868 36.3224 9.79476 35.9245 9.5338 35.4414C9.2702 34.9174 9.13281 34.338 9.13281 33.7503C9.13281 33.1626 9.2702 32.5832 9.5338 32.0592C9.79476 31.5761 10.1868 31.1782 10.6639 30.9121C11.1862 30.6413 11.7649 30.5 12.3521 30.5C12.9393 30.5 13.518 30.6413 14.0404 30.9121C14.5181 31.1795 14.9119 31.5769 15.1768 32.0592C15.4448 32.5818 15.5846 33.1618 15.5846 33.7503C15.5846 34.3388 15.4448 34.9188 15.1768 35.4414C14.9131 35.9231 14.521 36.3204 14.0449 36.5885C13.5236 36.8721 12.9382 37.0138 12.3462 36.9997ZM12.3462 35.2014C12.5309 35.2086 12.715 35.1768 12.8869 35.1081C13.0587 35.0393 13.2144 34.9351 13.3441 34.8021C13.5993 34.5354 13.7269 34.1877 13.7269 33.7563C13.7269 33.3249 13.5993 32.9624 13.3441 32.692C13.2154 32.5574 13.06 32.4517 12.888 32.382C12.716 32.3122 12.5314 32.28 12.3462 32.2873C12.1654 32.2815 11.9854 32.3139 11.8178 32.3825C11.6502 32.4511 11.4986 32.5543 11.3729 32.6856C11.1177 32.9523 10.9901 33.3049 10.9901 33.7434C10.9901 34.1819 11.1177 34.5348 11.3729 34.8021C11.4986 34.9335 11.6501 35.0369 11.8177 35.1056C11.9853 35.1744 12.1653 35.207 12.3462 35.2014Z" fill="#E14446"/>
<path d="M18.4207 36.8469H16.5898V28.2188H21.9749V30.0051H17.7828L18.4207 29.2324V36.8469ZM17.8812 33.5778V31.8043H21.3443V33.5778H17.8812Z" fill="white"/>
<path d="M24.2203 29.9814L24.8582 29.2336V35.8344L24.1601 35.0902H28.4653V36.8508H23.0273V28.2227H28.4625V29.9842L24.2203 29.9814ZM24.2576 33.4023V31.6408H27.7727V33.4023H24.2576Z" fill="white"/>
<path d="M29.2539 36.8469L30.7603 28.2188H32.4007L34.4467 34.1233H34.3556L36.4015 28.2188H38.0419L39.5611 36.8469H37.7156L37.126 32.9955C37.0501 32.4804 36.9811 31.9671 36.9191 31.4557C36.8572 30.9443 36.8046 30.4313 36.7615 29.9168H37.2837C37.15 30.4742 37.0182 30.9979 36.8882 31.4879C36.7581 31.9779 36.6062 32.4718 36.4325 32.9698L35.1265 36.7412H33.6848L32.3798 32.9698C32.2036 32.4632 32.0517 31.9671 31.9241 31.4815C31.7965 30.9958 31.6647 30.4745 31.5286 29.9177H32.0435C32.0016 30.4328 31.9512 30.9458 31.8922 31.4566C31.8333 31.9674 31.7622 32.4807 31.679 32.9964L31.0866 36.8469H29.2539Z" fill="white"/>
<path d="M39.9609 36.8469L42.9984 28.2188H45.0198L47.9069 36.8469H46.0487L43.7138 29.4881H44.3162L41.8064 36.8469H39.9609ZM41.831 33.5254H45.85V35.2363H41.831V33.5254Z" fill="white"/>
</g>
<defs>
<clipPath id="clip0_1158_1847">
<rect width="48" height="37" fill="white"/>
</clipPath>
</defs>
</svg>
