<svg width="32" height="33" viewBox="0 0 32 33" fill="none" xmlns="http://www.w3.org/2000/svg">
<circle cx="16" cy="16.1719" r="16" fill="#0857D7"/>
<g clip-path="url(#clip0_1140_4933)">
<path d="M18.9375 9.85938H21.1875" stroke="white" stroke-linecap="round" stroke-linejoin="round"/>
<path d="M20.0625 8.73438V10.9844" stroke="white" stroke-linecap="round" stroke-linejoin="round"/>
<path d="M21.1875 13.7969H23.4375" stroke="white" stroke-linecap="round" stroke-linejoin="round"/>
<path d="M22.3125 12.6719V14.9219" stroke="white" stroke-linecap="round" stroke-linejoin="round"/>
<path d="M9.76563 12.6719C9.76562 13.1151 9.85292 13.554 10.0225 13.9634C10.1921 14.3729 10.4407 14.745 10.7541 15.0584C11.0675 15.3718 11.4396 15.6204 11.8491 15.79C12.2585 15.9596 12.6974 16.0469 13.1406 16.0469C13.5838 16.0469 14.0227 15.9596 14.4322 15.79C14.8417 15.6204 15.2137 15.3718 15.5271 15.0584C15.8405 14.745 16.0891 14.3729 16.2587 13.9634C16.4283 13.554 16.5156 13.1151 16.5156 12.6719C16.5156 12.2287 16.4283 11.7898 16.2587 11.3803C16.0891 10.9708 15.8405 10.5988 15.5271 10.2854C15.2137 9.97199 14.8417 9.72339 14.4322 9.55378C14.0227 9.38417 13.5838 9.29688 13.1406 9.29688C12.6974 9.29688 12.2585 9.38417 11.8491 9.55378C11.4396 9.72339 11.0675 9.97199 10.7541 10.2854C10.4407 10.5988 10.1921 10.9708 10.0225 11.3803C9.85292 11.7898 9.76562 12.2287 9.76563 12.6719Z" stroke="white" stroke-linecap="round" stroke-linejoin="round"/>
<path d="M9.00781 11.3516L17.2758 13.9908" stroke="white" stroke-linecap="round" stroke-linejoin="round"/>
<path d="M14.4748 15.7753L11.2093 22.8328C11.0943 23.0819 10.8922 23.2804 10.6411 23.3909C10.39 23.5014 10.1072 23.5163 9.84582 23.4328L9.59457 23.3526C9.33406 23.2692 9.11285 23.0938 8.97232 22.8591C8.8318 22.6244 8.78158 22.3466 8.83107 22.0776L10.2561 14.4336" fill="white"/>
<path d="M14.4748 15.7753L11.2093 22.8328C11.0943 23.0819 10.8922 23.2804 10.6411 23.3909C10.39 23.5014 10.1072 23.5163 9.84582 23.4328L9.59457 23.3526C9.33406 23.2692 9.11285 23.0938 8.97232 22.8591C8.8318 22.6244 8.78158 22.3466 8.83107 22.0776L10.2561 14.4336" stroke="white" stroke-linecap="round" stroke-linejoin="round"/>
<path d="M9.71991 23.3906L9.03516 25.5341" stroke="white" stroke-linecap="round" stroke-linejoin="round"/>
<path d="M17.1211 23.2828C17.1211 23.6012 17.2476 23.9067 17.4728 24.1318C17.698 24.357 18.0034 24.4835 18.3218 24.4835C18.6403 24.4835 18.9457 24.357 19.1709 24.1318C19.3961 23.9067 19.5226 23.6012 19.5226 23.2828C19.5226 22.9643 19.3961 22.6589 19.1709 22.4337C18.9457 22.2085 18.6403 22.082 18.3218 22.082C18.0034 22.082 17.698 22.2085 17.4728 22.4337C17.2476 22.6589 17.1211 22.9643 17.1211 23.2828Z" fill="white" stroke="white" stroke-linecap="round" stroke-linejoin="round"/>
<path d="M24.0016 21.9891C24.0016 22.2264 23.9312 22.4584 23.7993 22.6557C23.6675 22.8531 23.4801 23.0069 23.2608 23.0977C23.0415 23.1885 22.8002 23.2123 22.5675 23.166C22.3347 23.1197 22.1209 23.0054 21.953 22.8376C21.7852 22.6698 21.6709 22.4559 21.6246 22.2232C21.5783 21.9904 21.6021 21.7491 21.6929 21.5298C21.7837 21.3106 21.9375 21.1232 22.1349 20.9913C22.3322 20.8594 22.5642 20.7891 22.8016 20.7891C23.1198 20.7891 23.425 20.9155 23.6501 21.1405C23.8751 21.3656 24.0016 21.6708 24.0016 21.9891Z" fill="white" stroke="white" stroke-linecap="round" stroke-linejoin="round"/>
<path d="M19.5234 23.2825V18.7825C19.5234 18.5808 19.5869 18.3842 19.7048 18.2205C19.8227 18.0568 19.9891 17.9344 20.1804 17.8705L22.7364 17.2173C22.8811 17.169 23.0351 17.156 23.1858 17.1791C23.3365 17.2022 23.4796 17.2608 23.6031 17.3502C23.7267 17.4395 23.8272 17.5569 23.8964 17.6928C23.9655 17.8287 24.0014 17.979 24.0009 18.1315V21.988" stroke="white" stroke-linecap="round" stroke-linejoin="round"/>
</g>
<defs>
<clipPath id="clip0_1140_4933">
<rect width="18" height="18" fill="white" transform="translate(7.5 8.17188)"/>
</clipPath>
</defs>
</svg>
