<svg width="32" height="33" viewBox="0 0 32 33" fill="none" xmlns="http://www.w3.org/2000/svg">
<circle cx="16" cy="16.1719" r="16" fill="#962B91"/>
<path d="M21.2031 14.6742C21.2031 15.2312 21.4244 15.7653 21.8182 16.1591C22.212 16.553 22.7462 16.7742 23.3031 16.7742C23.8601 16.7742 24.3942 16.553 24.788 16.1591C25.1819 15.7653 25.4031 15.2312 25.4031 14.6742C25.4031 14.1173 25.1819 13.5831 24.788 13.1893C24.3942 12.7955 23.8601 12.5742 23.3031 12.5742C22.7462 12.5742 22.212 12.7955 21.8182 13.1893C21.4244 13.5831 21.2031 14.1173 21.2031 14.6742Z" fill="white"/>
<path d="M23.3016 17.3711C22.5855 17.3711 21.8987 17.6556 21.3924 18.1619C20.886 18.6683 20.6016 19.355 20.6016 20.0711V22.3211H21.9516L22.4016 26.3711H24.2016L24.6516 22.3211H26.0016V20.0711C26.0016 19.355 25.7171 18.6683 25.2108 18.1619C24.7044 17.6556 24.0176 17.3711 23.3016 17.3711Z" fill="white"/>
<path d="M6.20312 14.6742C6.20312 14.95 6.25744 15.2231 6.36298 15.4779C6.46851 15.7326 6.6232 15.9641 6.8182 16.1591C7.0132 16.3541 7.24471 16.5088 7.49949 16.6144C7.75427 16.7199 8.02735 16.7742 8.30313 16.7742C8.5789 16.7742 8.85198 16.7199 9.10676 16.6144C9.36154 16.5088 9.59305 16.3541 9.78805 16.1591C9.98305 15.9641 10.1377 15.7326 10.2433 15.4779C10.3488 15.2231 10.4031 14.95 10.4031 14.6742C10.4031 14.3984 10.3488 14.1254 10.2433 13.8706C10.1377 13.6158 9.98305 13.3843 9.78805 13.1893C9.59305 12.9943 9.36154 12.8396 9.10676 12.7341C8.85198 12.6285 8.5789 12.5742 8.30313 12.5742C8.02735 12.5742 7.75427 12.6285 7.49949 12.7341C7.24471 12.8396 7.0132 12.9943 6.8182 13.1893C6.6232 13.3843 6.46851 13.6158 6.36298 13.8706C6.25744 14.1254 6.20312 14.3984 6.20312 14.6742Z" fill="white"/>
<path d="M8.30156 17.3711C7.58548 17.3711 6.89872 17.6556 6.39237 18.1619C5.88603 18.6683 5.60156 19.355 5.60156 20.0711V22.3211H6.95156L7.40156 26.3711H9.20156L9.65156 22.3211H11.0016V20.0711C11.0016 19.355 10.7171 18.6683 10.2108 18.1619C9.7044 17.6556 9.01765 17.3711 8.30156 17.3711Z" fill="white"/>
<path d="M13.4023 12.5719C13.4023 13.2084 13.6552 13.8188 14.1053 14.2689C14.5554 14.719 15.1658 14.9719 15.8023 14.9719C16.4389 14.9719 17.0493 14.719 17.4994 14.2689C17.9495 13.8188 18.2023 13.2084 18.2023 12.5719C18.2023 11.9354 17.9495 11.3249 17.4994 10.8748C17.0493 10.4247 16.4389 10.1719 15.8023 10.1719C15.1658 10.1719 14.5554 10.4247 14.1053 10.8748C13.6552 11.3249 13.4023 11.9354 13.4023 12.5719Z" fill="white"/>
<path d="M18.8008 19.2762C18.8008 18.4529 18.4847 17.6633 17.9221 17.0811C17.3595 16.4989 16.5964 16.1719 15.8008 16.1719C15.0051 16.1719 14.2421 16.4989 13.6795 17.0811C13.1169 17.6633 12.8008 18.4529 12.8008 19.2762V21.9371H14.1576L14.5151 26.3719H17.0865L17.4439 21.9371H18.8008V19.2762Z" fill="white"/>
<path d="M5.60156 11.3727L15.3909 6.07492C15.5177 6.00774 15.6586 5.97266 15.8016 5.97266C15.9446 5.97266 16.0855 6.00774 16.2122 6.07492L26.0016 11.3727" stroke="#E8E8E8" stroke-width="0.5" stroke-linecap="round" stroke-linejoin="round"/>
</svg>
