<svg width="33" height="35" viewBox="0 0 33 35" fill="none" xmlns="http://www.w3.org/2000/svg">
<ellipse cx="16.5" cy="18.0352" rx="16" ry="16" fill="#00AC3A"/>
<path d="M7.84409 22.1703C16.5123 9.33834 16.9941 8.63178 17.0424 8.68187C17.1002 8.74173 27.008 23.4176 27.008 23.4433C19.952 23.4692 14.5744 23.4604 6.97266 23.4604L7.84409 22.1703Z" fill="#FCFCFC" stroke="#130000" stroke-width="0.0625" stroke-linecap="round" stroke-linejoin="round"/>
<path d="M3.99978 25.6453C3.13312 25.7646 3.12618 24.4652 3.59837 24.0715L16.3374 5.47028C16.7454 5.09152 17.2847 5.05041 17.752 5.42404L30.4728 24.0885C30.6393 24.4262 31.1486 25.3013 30.1428 25.658L3.99978 25.6453ZM27.1621 23.4972L17.01 8.47015L6.84593 23.5016L27.1621 23.4972Z" fill="#00AC3A" stroke="black" stroke-width="0.156081"/>
<path d="M14.0032 23.172C13.8959 23.0607 13.7195 22.8102 13.6112 22.6154C13.5029 22.4205 13.1513 21.9949 12.8299 21.6696C12.3252 21.1588 12.2329 20.9862 12.1534 20.4046C12.0275 19.4836 11.7351 19.4427 11.0573 20.2514C10.5799 20.8211 10.3197 20.9287 10.2467 20.5868C10.2272 20.4954 10.6711 19.9648 11.2332 19.4076L12.2551 18.3945L12.0553 18.0429C11.7519 17.5089 11.8521 17.1938 12.3391 17.1508C12.8268 17.1078 13.0514 17.3962 12.9367 17.9182C12.8364 18.3744 13.1276 18.5123 13.9756 18.41C15.0942 18.2751 15.4125 18.0199 16.1564 16.662C16.6602 15.742 16.9781 15.3202 17.4811 14.904C18.1412 14.3579 18.1425 14.3553 17.9973 13.9247C17.8777 13.5703 17.8866 13.4445 18.0467 13.2221C18.3113 12.8547 18.9332 12.9077 19.2754 13.3267C19.5162 13.6215 19.5168 13.6439 19.2974 14.0648L19.071 14.4989L19.4568 14.8018C19.669 14.9683 20.1111 15.4296 20.4393 15.8267C21.0627 16.5812 21.341 16.7744 21.9757 16.8933C22.2429 16.9433 22.357 17.0325 22.357 17.1912C22.357 17.5865 21.6844 17.5397 20.7082 17.0767C20.2319 16.8508 19.7933 16.666 19.7333 16.666C19.4953 16.666 19.6495 17.3151 20.1531 18.4327C20.6676 19.5744 20.6813 19.6389 20.6547 20.8002L20.6273 21.9941L21.0155 22.1173C21.4339 22.25 21.5276 22.4968 21.2026 22.6102C20.8529 22.7323 20.1691 22.6863 20.0275 22.531C19.9526 22.4489 19.8022 21.686 19.6933 20.8359C19.5844 19.9857 19.4315 19.2202 19.3536 19.1347C19.079 18.8337 18.8785 18.9829 18.6688 19.6443C18.5528 20.0101 18.2851 20.6886 18.074 21.1521C17.7053 21.9615 17.6685 22.324 17.904 22.825C18.0485 23.1326 17.6791 23.0803 17.219 22.728C16.7567 22.374 16.7394 22.198 17.0953 21.4659C17.529 20.5738 17.7337 19.2079 17.6373 17.8506C17.5907 17.1948 17.4997 16.6286 17.4351 16.5922C17.2309 16.4774 16.7299 17.0142 16.4449 17.6531C16.1737 18.2612 16.1596 18.2718 15.3234 18.5009C14.8576 18.6286 14.3235 18.767 14.1364 18.8087C13.1711 19.0235 13.2006 19.818 14.2112 20.8198C14.5697 21.1752 14.9869 21.6489 15.1383 21.8725C15.2897 22.0961 15.5944 22.4007 15.8155 22.5494C16.0898 22.7339 16.176 22.8574 16.0871 22.9382C15.8318 23.1706 15.3304 22.9083 14.7941 22.2619C14.1523 21.4884 13.8239 21.1768 13.6504 21.1768C13.3039 21.1768 13.775 22.1003 14.4642 22.7722C14.7907 23.0905 14.8238 23.1711 14.6657 23.262C14.3883 23.4217 14.2219 23.3991 14.0032 23.172Z" fill="black"/>
<path d="M17.486 10.4517L17.4173 15.5092H16.6202L16.5515 10.4517H17.486ZM17.0187 17.5433C16.8492 17.5433 16.7038 17.4826 16.5824 17.3612C16.461 17.2398 16.4003 17.0943 16.4003 16.9248C16.4003 16.7553 16.461 16.6098 16.5824 16.4884C16.7038 16.367 16.8492 16.3063 17.0187 16.3063C17.1882 16.3063 17.3337 16.367 17.4551 16.4884C17.5765 16.6098 17.6372 16.7553 17.6372 16.9248C17.6372 17.037 17.6085 17.1401 17.5513 17.234C17.4963 17.3279 17.4219 17.4035 17.328 17.4608C17.2363 17.5158 17.1333 17.5433 17.0187 17.5433Z" fill="black"/>
</svg>
