<svg width="89" height="32" viewBox="0 0 89 32" fill="none" xmlns="http://www.w3.org/2000/svg">
<g id="new ampli 1" clip-path="url(#clip0_843_40951)">
<g id="Clip path group">
<mask id="mask0_843_40951" style="mask-type:luminance" maskUnits="userSpaceOnUse" x="0" y="0" width="89" height="32">
<g id="clip0_180_2">
<path id="Vector" d="M89 0H0V32H89V0Z" fill="white"/>
</g>
</mask>
<g mask="url(#mask0_843_40951)">
<g id="Group">
<path id="Vector_2" d="M14.6575 21.543L14.6289 21.5723V21.569C14.6327 21.5573 14.6442 21.5521 14.6575 21.543Z" fill="#CC2929"/>
<path id="Vector_3" d="M23.2637 16.5078L23.2305 16.5403C23.2404 16.528 23.2504 16.5162 23.2597 16.5039L23.2637 16.5078Z" fill="#CC2929"/>
<path id="Vector_4" d="M23.2604 16.5039C23.2513 16.5162 23.2415 16.5279 23.2318 16.5403L23.1272 16.6449L11.3917 28.383L11.3761 28.3985C11.3592 28.4128 11.3436 28.4285 11.3293 28.4454C10.9894 28.8354 11.5405 29.4569 11.9727 29.122L19.6815 21.4114L19.69 21.4198C21.5798 19.9695 23.8245 22.3222 22.734 24.0852C22.6913 24.1964 22.6247 24.2969 22.539 24.3797L15.1551 31.7667C15.0816 31.8406 14.9942 31.8991 14.8979 31.9389C14.8017 31.9791 14.6985 31.9994 14.5943 31.9994C13.9171 32.0221 13.5272 31.1171 14.0334 30.6447L21.2666 23.4091L21.2575 23.3981C21.7163 23.023 21.1431 22.317 20.6869 22.6511L13.0424 30.2967L12.7993 30.0538L13.0203 30.3136C12.6512 30.6272 12.1826 30.7991 11.6984 30.7985C9.86059 30.8585 8.92801 28.3934 10.3135 27.2161L22.0289 15.4988C22.281 15.0633 21.639 14.5354 21.264 14.9625L21.2484 14.9482L14.6924 21.5063L14.6593 21.5401C14.6489 21.5492 14.6372 21.557 14.6268 21.5661C14.2638 21.8463 13.818 21.9979 13.3595 21.9971C11.5243 22.0673 10.5572 19.5632 11.9759 18.38L22.1563 8.19834L22.1491 8.19055C22.6079 7.81478 22.036 7.11462 21.5824 7.44163L3.53467 25.4946L3.55808 25.5174C3.36443 25.7117 3.13431 25.8658 2.8809 25.9708C2.62749 26.0758 2.35583 26.1296 2.08155 26.1291C0.276839 26.1837 -0.712922 23.8063 0.605677 22.564L13.9658 9.20533C14.374 8.76457 13.6883 8.13853 13.2861 8.55523L13.2666 8.57408L2.16603 19.6763C2.09245 19.7501 2.00502 19.8085 1.90877 19.8483C1.81252 19.8882 1.70935 19.9086 1.60519 19.9084C0.928666 19.9305 0.537441 19.0269 1.04435 18.5542L12.1858 7.40914C12.209 7.38575 12.2337 7.36402 12.2599 7.34412C14.1036 5.70133 16.8591 8.28544 15.1434 10.2643L15.0862 10.2129L15.1434 10.2702L1.68382 23.7342C1.35304 24.1359 1.85539 24.6963 2.27716 24.5084L20.529 6.25068C22.5481 4.61635 25.0255 7.42083 23.3637 9.21443L23.3722 9.22287L13.0476 19.5547C13.0455 19.5561 13.0438 19.5579 13.0424 19.5599L13.0333 19.5671C12.5927 19.9519 13.1509 20.6436 13.613 20.3414L20.2047 13.7481L20.2209 13.7644C22.0269 12.0963 24.7323 14.5361 23.2604 16.5039Z" fill="white"/>
<path id="Vector_5" d="M11.3892 28.384L11.375 28.3966L11.3886 28.3828L11.3892 28.384Z" fill="#CC2929"/>
<path id="Vector_6" d="M23.2335 16.5391C23.2043 16.5774 23.1731 16.6158 23.14 16.6535L23.1289 16.6437L23.2335 16.5391Z" fill="#CC2929"/>
<path id="Vector_7" d="M14.6973 21.5117C14.6854 21.5221 14.6728 21.5319 14.6602 21.5416L14.694 21.5078L14.6973 21.5117Z" fill="#CC2929"/>
<path id="Vector_8" d="M13.284 8.55469C13.2781 8.56149 13.2715 8.5683 13.2656 8.57577L13.284 8.55469Z" fill="#CC2929"/>
<path id="Vector_9" d="M17.073 6.49178C18.865 6.49178 20.3178 5.03855 20.3178 3.24591C20.3178 1.45324 18.865 0 17.073 0C15.2809 0 13.8281 1.45324 13.8281 3.24591C13.8281 5.03855 15.2809 6.49178 17.073 6.49178Z" fill="#CC2929"/>
<path id="Vector_10" d="M29.4846 21.0304V19.9987H29.445C29.2237 20.3234 28.9526 20.6113 28.6417 20.8516C28.3709 21.0505 27.9908 21.1498 27.5012 21.1493C27.2558 21.1478 27.0119 21.1106 26.7772 21.0388C26.5156 20.9568 26.2753 20.8181 26.0734 20.6325C25.8486 20.447 25.6668 20.1792 25.5282 19.829C25.3895 19.4788 25.3191 19.0261 25.317 18.471C25.3107 17.969 25.3573 17.4679 25.456 16.9758C25.5335 16.5773 25.7108 16.2051 25.9714 15.894C26.2335 15.601 26.5706 15.385 26.9462 15.2693C27.3556 15.1306 27.8777 15.0612 28.5124 15.0612H28.7308C28.804 15.0607 28.8771 15.0672 28.9491 15.0808C29.0275 15.0954 29.1074 15.1021 29.187 15.1009C29.2865 15.1014 29.386 15.1079 29.4846 15.1204V14.0673C29.4846 13.7236 29.4119 13.4393 29.2662 13.2143C29.1207 12.9894 28.8562 12.8769 28.4728 12.8769C28.2089 12.8774 27.9532 12.9693 27.7495 13.137C27.5328 13.3103 27.3907 13.5617 27.3231 13.8911H25.3592C25.4121 12.9918 25.7153 12.2643 26.269 11.7087C26.5417 11.4392 26.8653 11.2268 27.2211 11.084C27.6186 10.927 28.0429 10.8495 28.4702 10.8558C28.8755 10.8529 29.2784 10.92 29.6608 11.0541C30.0241 11.1816 30.3563 11.3845 30.6355 11.6496C30.9124 11.9336 31.1282 12.2712 31.2698 12.6416C31.4368 13.0851 31.5173 13.5564 31.5077 14.0302V21.0304H29.4846ZM29.4846 16.7053C29.3014 16.6703 29.1155 16.6505 28.929 16.6462C28.4927 16.6462 28.1193 16.7487 27.8086 16.9537C27.498 17.1586 27.3426 17.5322 27.3426 18.0744C27.3426 18.4586 27.4349 18.7687 27.6201 19.0073C27.8053 19.2459 28.0633 19.3642 28.3935 19.3642C28.737 19.3642 29.0048 19.2517 29.1966 19.0268C29.3886 18.8019 29.4846 18.4844 29.4846 18.0744V16.7053Z" fill="#CC2929"/>
<path id="Vector_11" d="M32.9961 21.0267V10.9686H35.0192V11.9437H35.0588C35.2606 11.6358 35.5201 11.3696 35.8226 11.1597C36.1195 10.9547 36.4997 10.8522 36.9624 10.8522C37.399 10.8522 37.7628 10.9579 38.0534 11.1694C38.3259 11.3631 38.567 11.5975 38.7683 11.8644C39.0141 11.591 39.2939 11.3506 39.6016 11.1493C39.9046 10.9512 40.3278 10.852 40.8706 10.8516C41.1338 10.8539 41.3947 10.8978 41.6439 10.9816C41.9109 11.0688 42.1552 11.2145 42.3588 11.408C42.5819 11.6239 42.7573 11.8838 42.8742 12.1712C43.0042 12.4824 43.0703 12.8627 43.0726 13.3121V21.0267H41.0454V14.0636C41.0454 13.6939 40.959 13.4029 40.7856 13.1906C40.6123 12.9782 40.3677 12.8724 40.0518 12.8733C39.6685 12.8733 39.4038 12.9923 39.2584 13.2302C39.1127 13.4682 39.0402 13.8121 39.0405 14.2619V21.0267H37.022V14.0636C37.022 13.6939 36.9354 13.4029 36.7623 13.1906C36.589 12.9782 36.3444 12.8724 36.0285 12.8733C35.6452 12.8733 35.3805 12.9923 35.2351 13.2302C35.0893 13.4682 35.0169 13.8121 35.0172 14.2619V21.0267H32.9961Z" fill="#CC2929"/>
<path id="Vector_12" d="M44.7344 25.0983V10.9731H46.7569V11.8833C46.9876 11.6117 47.247 11.3657 47.53 11.1493C47.795 10.9513 48.1783 10.852 48.6803 10.8516C49.5136 10.8516 50.102 11.169 50.4455 11.8039C50.5773 12.0656 50.6651 12.3472 50.7055 12.6374C50.7651 13.0777 50.7919 13.5218 50.7846 13.9662V17.7952C50.7846 18.5363 50.7651 19.072 50.7256 19.4022C50.6462 20.0631 50.3431 20.5591 49.8158 20.8903C49.5511 21.0636 49.1675 21.1503 48.6655 21.1503C48.2944 21.1569 47.9279 21.0644 47.6042 20.8825C47.2819 20.6927 47.0071 20.4316 46.8009 20.1193H46.7613V25.0983H44.7344ZM48.7597 14.2463C48.7597 13.8368 48.6806 13.5063 48.5224 13.255C48.3645 13.0036 48.1132 12.8779 47.7685 12.8779C47.6277 12.8736 47.4876 12.9029 47.3602 12.9632C47.2325 13.0235 47.1211 13.1133 47.035 13.2251C46.8491 13.4565 46.7564 13.7575 46.7569 14.128V18.0357C46.7462 18.3245 46.8497 18.6059 47.0446 18.8191C47.1362 18.9192 47.2485 18.9984 47.3733 19.0515C47.4983 19.1046 47.633 19.1302 47.7685 19.1266C48.1522 19.1266 48.4128 19.0082 48.5486 18.7697C48.6917 18.5157 48.7635 18.2277 48.7565 17.9362L48.7597 14.2463Z" fill="#CC2929"/>
<path id="Vector_13" d="M52.3316 6.90625H54.3545V18.1938C54.3545 18.578 54.424 18.8386 54.563 18.9778C54.7023 19.1169 54.9629 19.2059 55.3431 19.245V21.1497C54.924 21.1536 54.5054 21.117 54.0933 21.0405C53.746 20.9787 53.4191 20.8322 53.1419 20.614C52.863 20.3966 52.6527 20.1031 52.537 19.7689C52.3976 19.4057 52.3281 18.9264 52.3281 18.3309L52.3316 6.90625Z" fill="#CC2929"/>
<path id="Vector_14" d="M55.2852 10.9727H57.4299L58.8181 17.2415H58.8577L60.2264 10.9727H62.306L59.4109 22.777C59.3277 23.1705 59.1764 23.5464 58.9641 23.888C58.787 24.1637 58.5619 24.4058 58.3001 24.6031C58.0602 24.784 57.7873 24.9165 57.4968 24.9931C57.2085 25.0664 56.9119 25.1031 56.6143 25.1023H56.0594V23.1976H56.5143C56.6894 23.2012 56.8642 23.1744 57.0303 23.1183C57.1751 23.0656 57.3077 22.9466 57.4267 22.7614C57.5564 22.5141 57.6565 22.2522 57.7242 21.9813C57.8167 21.6437 57.9223 21.1773 58.0415 20.5823L55.2852 10.9727Z" fill="#CC2929"/>
<path id="Vector_15" d="M63.9605 21.0295V12.5588H62.9688V10.9713H63.9605V9.60607C63.9605 9.11635 64.0333 8.70288 64.179 8.36572C64.3125 8.04365 64.5155 7.7551 64.7735 7.5206C65.0064 7.29884 65.2886 7.13573 65.5969 7.04473C65.9089 6.95216 66.2327 6.90553 66.5581 6.90626H67.4926V8.81037H66.5828C66.1864 8.81037 65.9881 9.04179 65.9875 9.50466V10.9726H67.4926V12.5601H65.9849V21.0307L63.9605 21.0295Z" fill="white"/>
<path id="Vector_16" d="M74.1523 10.9727V21.0308H72.1292V20.0557H72.0896C71.8878 20.3652 71.6283 20.633 71.3253 20.8443C71.0277 21.0488 70.6476 21.1513 70.1849 21.1518C69.9283 21.1504 69.6738 21.1065 69.4316 21.0217C69.1768 20.9337 68.9458 20.7878 68.7571 20.5953C68.5462 20.3771 68.3842 20.1168 68.2812 19.8314C68.153 19.4651 68.0925 19.0785 68.1027 18.6905V10.9727H70.1255V17.9358C70.1255 18.3063 70.2122 18.5973 70.3855 18.8088C70.5589 19.0203 70.8038 19.1261 71.1199 19.1261C71.5027 19.1261 71.7697 19.0078 71.9128 18.7692C72.0559 18.5306 72.1312 18.1841 72.1312 17.7375V10.9727H74.1523Z" fill="white"/>
<path id="Vector_17" d="M75.8164 21.03V10.9718H77.8396V11.947H77.8794C78.0812 11.6391 78.3404 11.3729 78.6429 11.163C78.9401 10.958 79.32 10.8555 79.7827 10.8555C80.0395 10.8569 80.2943 10.9008 80.5366 10.9855C80.7914 11.0738 81.022 11.2197 81.2111 11.4119C81.4217 11.63 81.584 11.8901 81.6869 12.1751C81.8149 12.5415 81.8754 12.9281 81.8655 13.3161V21.03H79.8426V14.0669C79.8426 13.6972 79.756 13.4062 79.5826 13.1939C79.4093 12.9815 79.1647 12.8757 78.8488 12.8766C78.4655 12.8766 78.2011 12.9956 78.0554 13.2335C77.9099 13.4714 77.8372 13.8153 77.8375 14.2652V21.03H75.8164Z" fill="white"/>
<path id="Vector_18" d="M87.5564 21.0307V20.1206C87.4264 20.2658 87.301 20.4012 87.18 20.5269C87.062 20.6512 86.9288 20.7604 86.7836 20.852C86.6301 20.9485 86.4628 21.0221 86.2877 21.0704C86.0742 21.1266 85.8541 21.1533 85.6333 21.1497C84.7864 21.1497 84.198 20.8322 83.8684 20.1973C83.737 19.9358 83.6491 19.6545 83.6084 19.3645C83.5482 18.9241 83.5217 18.4796 83.529 18.0351V14.2068C83.5212 13.6704 83.5409 13.134 83.5883 12.5997C83.6683 11.9379 83.9793 11.4419 84.5208 11.1117C84.7718 10.9383 85.1485 10.8516 85.6511 10.8516C86.0222 10.8451 86.3887 10.9376 86.7124 11.1195C87.0346 11.3097 87.3092 11.5709 87.5154 11.8833H87.5544V6.90625H89.5775V21.0307H87.5564ZM85.5562 17.7575C85.5562 18.168 85.6353 18.4986 85.7939 18.7496C85.9527 19.0011 86.2034 19.126 86.5472 19.126C86.6882 19.1303 86.8281 19.1011 86.9555 19.0409C87.0832 18.9807 87.1946 18.8911 87.281 18.7795C87.466 18.5481 87.5585 18.247 87.5585 17.8765V13.9682C87.5692 13.6795 87.466 13.3981 87.2711 13.1848C87.1795 13.0848 87.0675 13.0056 86.9424 12.9525C86.8177 12.8995 86.6827 12.8738 86.5472 12.8773C86.1638 12.8773 85.9038 12.9963 85.7674 13.2342C85.6246 13.4883 85.5527 13.7762 85.5594 14.0676L85.5562 17.7575Z" fill="white"/>
</g>
</g>
</g>
</g>
<defs>
<clipPath id="clip0_843_40951">
<rect width="89" height="32" fill="white"/>
</clipPath>
</defs>
</svg>
