<svg width="40" height="40" viewBox="0 0 40 40" fill="none" xmlns="http://www.w3.org/2000/svg">
<g id="Frame 8" clip-path="url(#clip0_1169_23140)">
<circle id="Ellipse 13" cx="20" cy="20" r="19" fill="white" stroke="white" stroke-width="2"/>
<path id="Line 5" d="M30 21C30.5523 21 31 20.5523 31 20C31 19.4477 30.5523 19 30 19V21ZM11.2929 19.2929C10.9024 19.6834 10.9024 20.3166 11.2929 20.7071L17.6569 27.0711C18.0474 27.4616 18.6805 27.4616 19.0711 27.0711C19.4616 26.6805 19.4616 26.0474 19.0711 25.6569L13.4142 20L19.0711 14.3431C19.4616 13.9526 19.4616 13.3195 19.0711 12.9289C18.6805 12.5384 18.0474 12.5384 17.6569 12.9289L11.2929 19.2929ZM30 19L12 19V21L30 21V19Z" fill="black"/>
</g>
<defs>
<clipPath id="clip0_1169_23140">
<rect width="40" height="40" fill="white"/>
</clipPath>
</defs>
</svg>
