<svg width="24" height="32" viewBox="0 0 24 32" fill="none" xmlns="http://www.w3.org/2000/svg">
<g id="clink logo 1" clip-path="url(#clip0_843_40866)">
<path id="Vector" d="M8.17568 21.7781C8.90701 21.7781 9.49982 21.1772 9.49982 20.4359C9.49982 19.6947 8.90701 19.0938 8.17568 19.0938C7.44439 19.0938 6.85156 19.6947 6.85156 20.4359C6.85156 21.1772 7.44439 21.7781 8.17568 21.7781Z" fill="#596AD0"/>
<path id="Vector_2" d="M20.1291 23.1598C20.1291 22.8038 19.9896 22.4624 19.7413 22.2107C19.493 21.959 19.1562 21.8176 18.805 21.8176C18.7733 21.8176 18.7422 21.8176 18.7111 21.8209C18.5419 21.874 18.3707 21.9228 18.1975 21.967C15.947 22.5378 13.5695 22.2761 11.4924 21.229C11.4487 21.2068 11.405 21.1847 11.3619 21.1614H11.3586C11.1915 21.0876 11.011 21.0499 10.8286 21.0508C10.5669 21.0507 10.3109 21.1292 10.0932 21.2765C9.87544 21.4237 9.7056 21.6332 9.60522 21.8782C9.50475 22.1233 9.4783 22.3929 9.52902 22.6533C9.57982 22.9136 9.7056 23.1528 9.89042 23.3407C10.1284 23.4746 10.3709 23.6005 10.618 23.7186C13.1543 24.9243 16.0211 25.2148 18.7427 24.5418C18.7973 24.529 18.8481 24.5152 18.901 24.5014C19.0741 24.4566 19.2454 24.4068 19.4158 24.3542C19.6312 24.2405 19.8117 24.069 19.9375 23.8583C20.0633 23.6477 20.1296 23.406 20.1291 23.1598Z" fill="#94D69A"/>
<path id="Vector_3" d="M20.3978 1.87072C20.3977 1.6162 20.3221 1.36759 20.1808 1.15722C20.0395 0.946858 19.839 0.784475 19.6053 0.691196C19.5507 0.672938 19.4961 0.654682 19.4372 0.635871C18.2668 0.270234 17.0488 0.084857 15.824 0.0859422C9.06701 0.0859422 3.58986 5.63834 3.58986 12.4875C3.58693 14.3911 4.01825 16.2697 4.85011 17.9763C4.97401 18.2303 5.10664 18.4803 5.24691 18.7237C5.43502 18.9037 5.671 19.0239 5.92572 19.0693C6.18043 19.1149 6.44272 19.0838 6.6802 18.98C6.91769 18.8761 7.11996 18.704 7.26206 18.485C7.40415 18.2659 7.47985 18.0094 7.47979 17.7473C7.47971 17.6103 7.4591 17.4741 7.41866 17.3434C7.33351 17.1959 7.25255 17.0454 7.17577 16.8919C6.31886 15.1826 5.97287 13.2569 6.18026 11.351C6.38765 9.44523 7.1394 7.64224 8.34325 6.16331C9.5471 4.68437 11.1507 3.59382 12.9573 3.0255C14.7639 2.45717 16.6948 2.43577 18.5132 2.96394C18.69 3.01539 18.8652 3.07459 19.0377 3.13323C19.074 3.13702 19.1104 3.13887 19.1468 3.13877C19.4786 3.13877 19.7968 3.00517 20.0314 2.76736C20.266 2.52956 20.3978 2.20703 20.3978 1.87072Z" fill="#94D69A"/>
<path id="Vector_4" d="M18.0429 6.98124C18.7742 6.98124 19.367 6.38032 19.367 5.63906C19.367 4.89779 18.7742 4.29688 18.0429 4.29688C17.3116 4.29688 16.7188 4.89779 16.7188 5.63906C16.7188 6.38032 17.3116 6.98124 18.0429 6.98124Z" fill="#94D69A"/>
<path id="Vector_5" d="M19.4382 19.3063C19.4382 19.0967 19.3926 18.8896 19.3047 18.6998C19.2168 18.51 19.0888 18.3422 18.9296 18.2083C18.7705 18.0743 18.5842 17.9776 18.384 17.9248C18.1838 17.8722 17.9746 17.8648 17.7713 17.9033C17.66 17.9439 17.547 17.9807 17.4323 18.014C16.692 18.2294 15.9164 18.2907 15.1521 18.1945C14.3878 18.0981 13.6506 17.8461 12.9848 17.4535C12.3191 17.0609 11.7387 16.5359 11.2783 15.91C10.8179 15.2841 10.4872 14.5702 10.3061 13.8114C10.125 13.0526 10.0971 12.2644 10.2242 11.4945C10.3514 10.7245 10.6309 9.98854 11.0459 9.33081C11.4609 8.67316 12.0029 8.10738 12.6393 7.66753C13.2755 7.22769 13.9931 6.92285 14.7486 6.77139C14.8862 6.74427 15.0253 6.72159 15.1667 6.705C15.4741 6.60369 15.7356 6.39463 15.9045 6.11538C16.0734 5.83612 16.1384 5.50499 16.0881 5.18144C16.0377 4.8579 15.8751 4.56318 15.6296 4.35021C15.3842 4.13724 15.0718 4.01999 14.7486 4.01953C14.7174 4.01953 14.6863 4.02064 14.6554 4.02285C14.5806 4.03336 14.5069 4.04498 14.4332 4.05715C13.3027 4.24821 12.2224 4.67073 11.2583 5.29891C10.2942 5.92709 9.46636 6.74778 8.82546 7.71092C8.18455 8.67406 7.74392 9.75949 7.53045 10.9009C7.31699 12.0423 7.33517 13.2158 7.58388 14.3499C7.83258 15.484 8.30661 16.5548 8.97708 17.4971C9.6475 18.4394 10.5002 19.2334 11.4833 19.8305C12.4664 20.4277 13.5592 20.8156 14.6951 20.9707C15.831 21.1257 16.9862 21.0445 18.0901 20.732C18.3345 20.6634 18.5744 20.5838 18.8095 20.4931C19.0025 20.363 19.161 20.1867 19.2706 19.9796C19.3804 19.7726 19.4379 19.5413 19.4382 19.3063Z" fill="#596AD0"/>
<path id="Vector_6" d="M2.67572 31.9983C2.12155 31.9983 1.64488 31.8814 1.24572 31.6475C0.852661 31.4209 0.532403 31.0841 0.323315 30.6777C0.108269 30.2642 0.000565092 29.7848 0.000201224 29.2393C-0.00412051 28.8589 0.0612061 28.4811 0.192867 28.125C0.314231 27.7982 0.499933 27.4998 0.738669 27.2481C0.977317 26.9994 1.2658 26.8054 1.58467 26.6794C1.93272 26.5432 2.30324 26.4758 2.67626 26.4807C3.30139 26.4807 3.819 26.6249 4.22907 26.9134C4.63916 27.2018 4.93625 27.6293 5.12037 28.1958L3.89013 28.7252C3.79214 28.472 3.63052 28.249 3.42129 28.0785C3.22626 27.9281 2.97773 27.8528 2.67572 27.8528C2.44679 27.8487 2.22085 27.9059 2.02076 28.0188C1.82987 28.1291 1.6759 28.2948 1.57866 28.4946C1.47499 28.7296 1.42141 28.9841 1.42141 29.2415C1.42141 29.4988 1.47499 29.7533 1.57866 29.9883C1.67512 30.1875 1.82939 30.352 2.02076 30.4597C2.22179 30.5694 2.44744 30.6246 2.67572 30.6196C2.97773 30.6196 3.22626 30.5459 3.42129 30.3983C3.63127 30.2301 3.79313 30.0082 3.89013 29.7554L5.12037 30.2854C4.93589 30.852 4.6386 31.2792 4.22853 31.5673C3.81844 31.8554 3.30084 31.999 2.67572 31.9983Z" fill="white"/>
<path id="Vector_7" d="M7.8266 30.3311H5.34375V29.0586H7.8266V30.3311Z" fill="white"/>
<path id="Vector_8" d="M11.6218 31.8927H8.31641V26.5859H9.70768V31.1834L9.27699 30.5195H11.624L11.6218 31.8927Z" fill="white"/>
<path id="Vector_9" d="M13.4693 31.8927H12.0781V26.5859H13.4693V31.8927Z" fill="white"/>
<path id="Vector_10" d="M17.4342 31.8927L14.9666 28.3519L15.489 28.2119V31.8899H14.0977V26.5859H15.3967L17.8572 30.1234L17.3342 30.2639V26.5859H18.7332V31.8927H17.4342Z" fill="white"/>
<path id="Vector_11" d="M19.3633 31.8927V26.5859H20.7546V31.8927H19.3633ZM22.1846 31.8927L20.2705 29.3676V29.1187L22.2768 26.5859H23.9988L21.7926 29.3676V29.1109L23.9682 31.8927H22.1846Z" fill="white"/>
</g>
<defs>
<clipPath id="clip0_843_40866">
<rect width="24" height="32" fill="white"/>
</clipPath>
</defs>
</svg>
