<svg xmlns="http://www.w3.org/2000/svg" width="24" height="25" viewBox="0 0 24 25" fill="none">
    <g clip-path="url(#clip0_1169_22999)">
        <rect width="24" height="24" transform="translate(0 0.5)" fill="black" />
        <path
            d="M9.70038 8.40303C8.84708 8.1639 7.94998 8.12579 7.07947 8.29169C6.20897 8.45759 5.38876 8.82298 4.68322 9.35919C3.97768 9.8954 3.40602 10.5878 3.0131 11.3821C2.62019 12.1764 2.41671 13.051 2.41863 13.9372V19.2068C2.41863 19.3956 2.38146 19.5825 2.30923 19.7568C2.23701 19.9312 2.13115 20.0896 1.99769 20.2231C1.86424 20.3565 1.7058 20.4624 1.53143 20.5346C1.35707 20.6069 1.17018 20.644 0.981445 20.644H15.3533C14.9722 20.644 14.6066 20.4926 14.3371 20.2231C14.0676 19.9536 13.9161 19.588 13.9161 19.2068V14.1154"
            stroke="white" stroke-linecap="round" stroke-linejoin="round" />
        <path
            d="M9.52328 22.5603C9.42433 22.8407 9.24084 23.0835 8.99811 23.2552C8.75538 23.427 8.46535 23.5192 8.16801 23.5192C7.87067 23.5192 7.58065 23.427 7.33791 23.2552C7.09518 23.0835 6.9117 22.8407 6.81274 22.5603"
            stroke="white" stroke-width="0.67" stroke-linecap="round" stroke-linejoin="round" />
        <path d="M8.16748 6.27313V8.18938" stroke="white" stroke-width="0.67" stroke-linecap="round"
            stroke-linejoin="round" />
        <path
            d="M11.521 7.23221C11.521 7.98715 11.6697 8.73469 11.9586 9.43216C12.2475 10.1296 12.6709 10.7634 13.2048 11.2972C13.7386 11.831 14.3723 12.2545 15.0698 12.5434C15.7673 12.8323 16.5148 12.981 17.2697 12.981C18.0247 12.981 18.7722 12.8323 19.4697 12.5434C20.1672 12.2545 20.8009 11.831 21.3347 11.2972C21.8685 10.7634 22.292 10.1296 22.5809 9.43216C22.8698 8.73469 23.0185 7.98715 23.0185 7.23221C23.0185 5.70755 22.4128 4.24533 21.3347 3.16723C20.2566 2.08913 18.7944 1.48346 17.2697 1.48346C15.7451 1.48346 14.2829 2.08913 13.2048 3.16723C12.1267 4.24533 11.521 5.70755 11.521 7.23221Z"
            stroke="white" stroke-linecap="round" stroke-linejoin="round" />
        <path d="M19.186 7.23222H17.2698V4.35785" stroke="white" stroke-width="0.67"
            stroke-linecap="round" stroke-linejoin="round" />
    </g>
    <defs>
        <clipPath id="clip0_1169_22999">
            <rect width="24" height="24" fill="white" transform="translate(0 0.5)" />
        </clipPath>
    </defs>
</svg>