<svg width="40" height="40" viewBox="0 0 40 40" fill="none" xmlns="http://www.w3.org/2000/svg">
<g clip-path="url(#clip0_1169_23330)">
<circle cx="20" cy="20" r="18.8" fill="black" fill-opacity="0.25" stroke="white" stroke-width="2.4"/>
<path d="M28 18.8C28.6627 18.8 29.2 19.3373 29.2 20C29.2 20.6627 28.6627 21.2 28 21.2V18.8ZM11.1515 20.8485C10.6828 20.3799 10.6828 19.6201 11.1515 19.1515L18.7882 11.5147C19.2569 11.0461 20.0167 11.0461 20.4853 11.5147C20.9539 11.9833 20.9539 12.7431 20.4853 13.2118L13.6971 20L20.4853 26.7882C20.9539 27.2569 20.9539 28.0167 20.4853 28.4853C20.0167 28.9539 19.2569 28.9539 18.7882 28.4853L11.1515 20.8485ZM28 21.2H12V18.8H28V21.2Z" fill="white"/>
</g>
<defs>
<clipPath id="clip0_1169_23330">
<rect width="40" height="40" fill="white"/>
</clipPath>
</defs>
</svg>
