<?xml version="1.0" standalone="no"?>
<!DOCTYPE svg PUBLIC "-//W3C//DTD SVG 20010904//EN"
 "http://www.w3.org/TR/2001/REC-SVG-20010904/DTD/svg10.dtd">
<svg version="1.0" xmlns="http://www.w3.org/2000/svg"
 width="1881.000000pt" height="1881.000000pt" viewBox="0 0 1881.000000 1881.000000"
 preserveAspectRatio="xMidYMid meet">

<g transform="translate(0.000000,1881.000000) scale(0.100000,-0.100000)"
fill="#000000" stroke="none">
<path d="M5181 15220 c0 -8 4 -22 9 -30 12 -18 12 -2 0 25 -6 13 -9 15 -9 5z"/>
<path d="M5536 13623 c6 -43 17 -141 24 -218 7 -77 16 -167 21 -200 16 -104
22 -578 10 -830 -14 -311 -63 -693 -111 -880 -10 -38 -37 -145 -61 -237 -24
-92 -46 -163 -49 -157 -7 10 -29 -76 -31 -114 0 -20 -1 -20 -8 -3 -5 13 -11
-1 -21 -48 -8 -37 -17 -61 -21 -54 -4 6 -10 -10 -14 -36 -5 -32 -10 -44 -16
-35 -6 10 -9 7 -10 -11 0 -23 -1 -23 -8 -5 -6 15 -10 9 -15 -29 -5 -32 -11
-45 -16 -36 -5 8 -11 -9 -16 -46 -5 -42 -9 -53 -14 -39 -5 15 -9 5 -15 -34 -5
-36 -10 -49 -16 -40 -6 10 -9 8 -9 -9 0 -13 -4 -20 -10 -17 -5 3 -10 -1 -10
-10 0 -9 -4 -13 -10 -10 -6 4 -10 -6 -11 -22 0 -25 -1 -26 -9 -8 -7 16 -9 12
-10 -20 -2 -35 -3 -37 -10 -15 -7 22 -8 20 -10 -15 -2 -35 -3 -37 -10 -15 -7
23 -8 22 -10 -10 -1 -29 -3 -32 -10 -15 -7 17 -9 14 -10 -15 -1 -29 -3 -32
-10 -15 -7 17 -9 14 -10 -15 -1 -28 -3 -31 -10 -15 -5 14 -10 -6 -16 -65 -6
-65 -9 -78 -15 -55 -4 17 -7 -14 -7 -75 0 -59 3 -92 7 -75 l7 30 7 -28 c7 -24
9 -26 22 -13 8 8 15 22 15 31 0 9 5 13 10 10 6 -3 10 1 10 10 0 9 5 13 10 10
6 -3 10 3 10 15 0 12 5 18 10 15 6 -3 10 4 10 16 0 12 3 19 7 16 6 -7 9 -3 56
79 39 69 50 87 64 99 7 5 31 50 53 99 23 48 58 125 79 170 74 157 173 503 225
786 62 339 88 652 88 1065 0 379 -22 697 -72 1060 -11 77 -20 143 -20 147 0 5
-6 8 -14 8 -11 0 -11 -13 0 -77z"/>
<path d="M4920 10215 c-1 -32 -3 -36 -10 -20 -7 16 -9 10 -11 -25 l-2 -45 -7
35 c-7 33 -8 31 -10 -20 -2 -47 -3 -51 -10 -25 -5 20 -8 -4 -8 -70 0 -66 3
-90 8 -70 l8 30 2 -30 3 -30 7 35 c4 21 8 27 9 15 l2 -20 9 20 c6 14 9 15 10
5 1 -10 4 -9 10 5 5 11 9 63 9 115 0 97 -16 177 -19 95z"/>
<path d="M4832 10020 c0 -78 3 -118 8 -105 11 25 11 171 0 205 -5 15 -8 -23
-8 -100z"/>
<path d="M4802 9990 c0 -84 3 -127 8 -115 11 25 11 191 0 225 -5 15 -8 -28 -8
-110z"/>
<path d="M4770 10015 l-2 -80 -9 60 c-14 98 -17 87 -17 -60 0 -147 2 -155 17
-65 l9 55 2 -50 c2 -45 3 -47 10 -20 4 17 8 64 8 105 0 111 -15 157 -18 55z"/>
<path d="M4712 9905 c0 -84 3 -128 8 -110 4 17 8 66 8 110 0 44 -4 94 -8 110
-5 18 -8 -26 -8 -110z"/>
<path d="M4693 9880 c0 -47 2 -66 4 -42 2 23 2 61 0 85 -2 23 -4 4 -4 -43z"/>
<path d="M4663 9855 c0 -38 2 -53 4 -32 2 20 2 52 0 70 -2 17 -4 1 -4 -38z"/>
<path d="M4594 9810 c0 -58 1 -81 3 -52 2 28 2 76 0 105 -2 28 -3 5 -3 -53z"/>
<path d="M4633 9835 c0 -22 2 -30 4 -17 2 12 2 30 0 40 -3 9 -5 -1 -4 -23z"/>
<path d="M4563 9785 c0 -38 2 -53 4 -32 2 20 2 52 0 70 -2 17 -4 1 -4 -38z"/>
<path d="M4494 9740 c0 -52 1 -74 3 -47 2 26 2 68 0 95 -2 26 -3 4 -3 -48z"/>
<path d="M4533 9765 c0 -27 2 -38 4 -22 2 15 2 37 0 50 -2 12 -4 0 -4 -28z"/>
<path d="M4424 9705 c0 -55 1 -76 3 -47 2 29 2 74 0 100 -2 26 -3 2 -3 -53z"/>
<path d="M4463 9725 c0 -38 2 -53 4 -32 2 20 2 52 0 70 -2 17 -4 1 -4 -38z"/>
<path d="M4353 9670 c0 -47 2 -66 4 -42 2 23 2 61 0 85 -2 23 -4 4 -4 -43z"/>
<path d="M4393 9690 c0 -36 2 -50 4 -32 2 17 2 47 0 65 -2 17 -4 3 -4 -33z"/>
<path d="M4204 9605 c0 -55 1 -76 3 -47 2 29 2 74 0 100 -2 26 -3 2 -3 -53z"/>
<path d="M4243 9620 c0 -47 2 -66 4 -42 2 23 2 61 0 85 -2 23 -4 4 -4 -43z"/>
<path d="M4283 9635 c0 -27 2 -38 4 -22 2 15 2 37 0 50 -2 12 -4 0 -4 -28z"/>
<path d="M4321 9654 c0 -11 3 -14 6 -6 3 7 2 16 -1 19 -3 4 -6 -2 -5 -13z"/>
<path d="M3974 9540 c0 -52 1 -74 3 -47 2 26 2 68 0 95 -2 26 -3 4 -3 -48z"/>
<path d="M4013 9550 c0 -47 2 -66 4 -42 2 23 2 61 0 85 -2 23 -4 4 -4 -43z"/>
<path d="M4053 9560 c0 -41 2 -58 4 -37 2 20 2 54 0 75 -2 20 -4 3 -4 -38z"/>
<path d="M4093 9570 c0 -36 2 -50 4 -32 2 17 2 47 0 65 -2 17 -4 3 -4 -33z"/>
<path d="M3894 9520 c0 -58 1 -81 3 -52 2 28 2 76 0 105 -2 28 -3 5 -3 -53z"/>
<path d="M3934 9525 c0 -55 1 -76 3 -47 2 29 2 74 0 100 -2 26 -3 2 -3 -53z"/>
<path d="M4132 9580 c0 -19 2 -27 5 -17 2 9 2 25 0 35 -3 9 -5 1 -5 -18z"/>
</g>
</svg>
