<svg xmlns="http://www.w3.org/2000/svg" width="32" height="32" viewBox="0 0 32 32" fill="none">
    <g clip-path="url(#clip0_1336_593)">
        <path d="M2 13L16 1L30 13" stroke="white" stroke-width="2" stroke-linecap="round"
            stroke-linejoin="round" />
        <path
            d="M16 7L4.50667 16.8267C4.20453 17.1021 4.02259 17.4851 4 17.8933V29.6933C4 30.047 4.14048 30.3861 4.39052 30.6361C4.64057 30.8862 4.97971 31.0267 5.33333 31.0267H12.3333V21.6933C12.3333 21.5201 12.4022 21.3539 12.5247 21.2314C12.6472 21.1088 12.8134 21.04 12.9867 21.04H19.0133C19.1866 21.04 19.3528 21.1088 19.4753 21.2314C19.5978 21.3539 19.6667 21.5201 19.6667 21.6933V31.0267H26.6667C27.0203 31.0267 27.3594 30.8862 27.6095 30.6361C27.8595 30.3861 28 30.047 28 29.6933V17.8933C27.9774 17.4851 27.7955 17.1021 27.4933 16.8267L16 7Z"
            stroke="white" stroke-width="2" stroke-linecap="round" stroke-linejoin="round" />
    </g>
    <defs>
        <clipPath id="clip0_1336_593">
            <rect width="32" height="32" fill="white" />
        </clipPath>
    </defs>
</svg>