<svg xmlns="http://www.w3.org/2000/svg" width="20" height="18" viewBox="0 0 20 18" fill="none">
  <g clip-path="url(#clip0_1246_3878)">
    <path d="M9.33855 9.10794C9.77016 8.64296 11.0895 7.35376 11.6692 6.72997C12.0077 6.36478 12.7976 5.54692 12.7976 5.54692L12.8023 5.54225L12.8822 5.45011C12.9437 5.38175 13.0122 5.31877 13.0867 5.26199L13.1516 5.21316L13.1765 5.1983L13.2019 5.18386C13.2137 5.17706 13.2259 5.17112 13.2377 5.16517C13.243 5.16223 13.2485 5.15954 13.2541 5.1571C13.2654 5.15116 13.2762 5.14606 13.288 5.14097L13.3143 5.12908C13.4049 5.09042 13.5012 5.06368 13.6002 5.04967C13.652 5.04271 13.7043 5.03916 13.7567 5.03906C14.1489 5.03906 14.4991 5.24118 14.7267 5.55669C15.2072 4.32524 12.2461 2.81607 10.8243 4.48575L6.50391 9.30667L7.04647 9.88418C7.04647 9.88418 8.32957 10.1929 9.33479 9.10964" fill="#371606"/>
    <path d="M9.33855 9.10794C9.77016 8.64296 11.0895 7.35376 11.6692 6.72997C12.0077 6.36478 12.7976 5.54692 12.7976 5.54692L12.8023 5.54225L12.8822 5.45011C12.9437 5.38175 13.0122 5.31877 13.0867 5.26199L13.1516 5.21316L13.1765 5.1983L13.2019 5.18386C13.2137 5.17706 13.2259 5.17112 13.2377 5.16517C13.243 5.16223 13.2485 5.15954 13.2541 5.1571C13.2654 5.15116 13.2762 5.14606 13.288 5.14097L13.3143 5.12908C13.4049 5.09042 13.5012 5.06368 13.6002 5.04967C13.652 5.04271 13.7043 5.03916 13.7567 5.03906C14.1489 5.03906 14.4991 5.24118 14.7267 5.55669C15.2072 4.32524 12.2461 2.81607 10.8243 4.48575L6.50391 9.30667L7.04647 9.88418C7.04647 9.88418 8.32957 10.1929 9.33479 9.10964" stroke="#0B82F9" stroke-width="0.516432" stroke-miterlimit="10"/>
    <path d="M5.7645 8.06439C6.08469 7.42276 6.10443 7.489 6.42274 6.84737C6.56128 6.56966 6.69967 6.29194 6.8379 6.01423C7.44222 4.80288 8.04592 3.59139 8.64899 2.37975C8.67898 2.34235 8.70646 2.30335 8.73127 2.26298C8.7388 2.25194 8.74537 2.24089 8.75196 2.22943C8.79452 2.15628 8.82841 2.07928 8.85305 1.9997C8.86057 1.9772 8.86715 1.95427 8.87232 1.93134C8.87703 1.92114 8.8822 1.91138 8.88737 1.90118C8.89348 1.89099 8.90006 1.88123 8.90664 1.87103C8.91323 1.86084 8.92216 1.84768 8.93062 1.83621C8.93909 1.82475 8.94708 1.81371 8.95554 1.80224L8.98141 1.76912C8.99034 1.75808 8.99926 1.74704 9.00867 1.73642C9.01807 1.72581 9.02184 1.72071 9.02936 1.71265L9.03171 1.70967L9.05193 1.68802L9.07167 1.66721L9.09612 1.643C9.10459 1.63451 9.11352 1.62559 9.12293 1.61753C9.13233 1.60946 9.14455 1.59757 9.15537 1.58823C9.16618 1.57888 9.17652 1.56997 9.18733 1.56105C9.19815 1.55213 9.20896 1.54321 9.22024 1.53472C9.23153 1.52623 9.24234 1.51731 9.25409 1.50882L9.28843 1.48419L9.32369 1.46041C9.34438 1.44682 9.36553 1.43366 9.38716 1.42134C9.39938 1.4137 9.41208 1.40648 9.42524 1.39969C9.44123 1.39077 9.45674 1.38228 9.47226 1.37421L9.50329 1.35935L9.5348 1.34491L9.57852 1.3258L9.5992 1.31773C9.61284 1.31179 9.62648 1.30669 9.64058 1.3016L9.67349 1.2897C9.78708 1.25045 9.90547 1.22365 10.0261 1.20987C10.0901 1.2029 10.1545 1.19936 10.2189 1.19926C10.4496 1.19772 10.6777 1.24333 10.8862 1.33268C11.0946 1.42203 11.278 1.55279 11.4225 1.71519C11.5379 1.88618 11.6349 2.06677 11.7121 2.25448C11.7715 2.39997 11.8187 2.5493 11.8532 2.7012C11.3065 3.7979 10.7599 4.89489 10.2132 5.99215C9.79009 6.84143 9.36694 7.69071 8.94379 8.53998C8.90618 8.61472 8.86887 8.68945 8.83188 8.76419C8.78017 8.86752 8.72877 8.97085 8.67768 9.07418C8.41626 9.5986 7.85629 9.96252 7.22015 9.98757C7.19335 9.98757 7.16654 9.98757 7.13975 9.98757C6.64983 9.98757 6.15663 9.91921 5.82986 9.63427C5.62016 9.45168 5.3437 9.14 5.42457 8.82746L5.7645 8.06439Z" fill="#0B82F9"/>
    <path d="M7.91316 1.41952C9.33213 -0.250158 12.2933 1.25816 11.8132 2.49046C11.5857 2.17495 11.2354 1.97282 10.8428 1.97282C10.7905 1.97293 10.7384 1.97648 10.6867 1.98344C10.5877 1.99759 10.4915 2.02432 10.4008 2.06285L10.374 2.07474C10.3627 2.07983 10.3519 2.08493 10.3406 2.09087L10.3237 2.09894L10.2885 2.11805L10.2631 2.13206L10.2377 2.14692L10.1733 2.19618C10.0985 2.2526 10.03 2.31546 9.96874 2.38387L9.88552 2.47644L9.88034 2.48112C9.88034 2.48112 9.09328 3.29897 8.75194 3.66458L7.01231 5.53851C6.5807 6.00335 6.14908 6.46861 5.71746 6.9343L5.70243 6.95086L5.33569 7.34578C5.26925 7.38967 5.19708 7.42604 5.12082 7.45406C5.01032 7.49461 4.89218 7.51552 4.7729 7.51563C4.15604 7.51563 3.65625 6.96105 3.65625 6.27653C3.65625 6.25403 3.65625 6.23152 3.65625 6.20902C3.65983 6.12791 3.671 6.04723 3.68963 5.96782L4.52465 5.06759C4.53358 5.05782 4.54252 5.04763 4.55192 5.03786L5.71465 3.78475L5.83736 3.65227L7.97381 1.34945" fill="#371606"/>
    <path d="M7.91316 1.41952C9.33213 -0.250158 12.2933 1.25816 11.8132 2.49046C11.5857 2.17495 11.2354 1.97282 10.8428 1.97282C10.7905 1.97293 10.7384 1.97648 10.6867 1.98344C10.5877 1.99759 10.4915 2.02432 10.4008 2.06285L10.374 2.07474C10.3627 2.07983 10.3519 2.08493 10.3406 2.09087L10.3237 2.09894L10.2885 2.11805L10.2631 2.13206L10.2377 2.14692L10.1733 2.19618C10.0985 2.2526 10.03 2.31546 9.96874 2.38387L9.88552 2.47644L9.88034 2.48112C9.88034 2.48112 9.09328 3.29897 8.75194 3.66458L7.01231 5.53851C6.5807 6.00335 6.14908 6.46861 5.71746 6.9343L5.70243 6.95086L5.33569 7.34578C5.26925 7.38967 5.19708 7.42604 5.12082 7.45406C5.01032 7.49461 4.89218 7.51552 4.7729 7.51563C4.15604 7.51563 3.65625 6.96105 3.65625 6.27653C3.65625 6.25403 3.65625 6.23152 3.65625 6.20902C3.65983 6.12791 3.671 6.04723 3.68963 5.96782L4.52465 5.06759C4.53358 5.05782 4.54252 5.04763 4.55192 5.03786L5.71465 3.78475L5.83736 3.65227L7.97381 1.34945" stroke="#0B82F9" stroke-width="0.516432" stroke-miterlimit="10"/>
    <path d="M3.94038 6.21493C3.94038 6.90241 4.44251 7.45954 5.06173 7.45954C5.18167 7.45954 5.30047 7.43848 5.41153 7.39754C4.98556 7.73725 4.1576 8.01157 3.23418 8.01157C2.31077 8.01157 1.00652 7.0901 1.45412 5.43401C1.45412 5.43401 1.56414 5.03273 1.64219 4.83952C1.95532 4.06795 2.31641 3.30827 2.62954 2.5367L2.71276 2.33203H5.40401C5.36546 2.42715 5.3269 2.52269 5.28788 2.61781C4.98979 3.35414 4.50363 4.41318 4.21448 5.03273C4.06858 5.3494 3.97619 5.68407 3.94038 6.02554V6.21493Z" fill="#0B82F9"/>
    <path d="M3.99802 2.08497C4.6355 2.08497 5.15228 1.61824 5.15228 1.04249C5.15228 0.466737 4.6355 0 3.99802 0C3.36053 0 2.84375 0.466737 2.84375 1.04249C2.84375 1.61824 3.36053 2.08497 3.99802 2.08497Z" fill="#0B82F9"/>
    <path d="M14.7126 6.99869C13.7492 9.11296 11.3504 14.1156 11.1229 14.6074C11.1135 14.6282 11.105 14.6498 11.0965 14.6694C11.0716 14.7318 11.0082 14.8507 10.9555 14.9522V14.9547C10.3255 16.4936 8.84772 17.6342 7.06249 17.8665C6.87665 17.891 6.68933 17.9051 6.50158 17.9089C6.44939 17.9089 5.61812 17.0864 5.56641 17.0809C5.5744 17.0647 5.66562 17.0236 5.80855 16.9535C6.65194 16.531 7.31609 15.8675 7.69675 15.0672C7.79078 14.8671 7.88607 14.6674 7.98261 14.4681C7.99981 14.4049 8.02325 14.3432 8.05267 14.2838L9.38559 11.6086L9.4768 11.4255C9.82943 10.7177 11.6128 7.23309 11.987 6.48318L11.9452 6.47766C12.0604 5.76851 13.5936 4.52432 14.3788 4.62708C15.1983 4.49544 14.8598 6.68021 14.7126 6.99869Z" fill="#0B82F9"/>
    <path d="M19.0525 7.78516C19.0525 7.78516 9.26737 13.0931 6.70307 15.1242C6.54435 15.2474 6.42652 15.4079 6.36267 15.5879C6.13887 16.2461 6.7421 16.8894 8.38158 17.3901C5.62639 18.5761 4.09222 17.5786 3.73348 16.2338C3.44339 15.1484 3.9902 14.0197 5.04291 13.4341C7.39799 12.1233 14.8864 8.09387 15.2456 7.80087C17.0313 7.78516 19.0525 7.78516 19.0525 7.78516Z" fill="#371606" stroke="#0B82F9" stroke-width="0.516432" stroke-miterlimit="10"/>
  </g>
  <defs>
    <clipPath id="clip0_1246_3878">
      <rect width="20" height="18" fill="white"/>
    </clipPath>
  </defs>
</svg>