<svg xmlns="http://www.w3.org/2000/svg" width="20" height="20" viewBox="0 0 20 20" fill="none">
  <path d="M11.7646 13.4648L11.7461 13.4831V13.4811C11.7486 13.4738 11.756 13.4705 11.7646 13.4648Z" fill="#CC2929"/>
  <path d="M17.2046 10.3188L17.1836 10.3392C17.1899 10.3314 17.1962 10.3241 17.2021 10.3164L17.2046 10.3188Z" fill="#CC2929"/>
  <path d="M17.2011 10.314C17.1953 10.3217 17.1892 10.329 17.183 10.3367L17.1169 10.4021L9.6998 17.7384L9.68995 17.7481C9.67928 17.757 9.66939 17.7668 9.66037 17.7774C9.44555 18.0212 9.79386 18.4096 10.067 18.2003L14.9392 13.3812L14.9445 13.3864C16.1389 12.48 17.5576 13.9504 16.8684 15.0523C16.8414 15.1218 16.7993 15.1846 16.7452 15.2363L12.0784 19.8532C12.0319 19.8994 11.9767 19.9359 11.9158 19.9608C11.855 19.9859 11.7898 19.9987 11.7239 19.9987C11.2959 20.0128 11.0495 19.4472 11.3695 19.1519L15.9409 14.6297L15.9352 14.6228C16.2252 14.3884 15.8629 13.9471 15.5746 14.156L10.7431 18.9345L10.5894 18.7827L10.7291 18.945C10.4958 19.141 10.1997 19.2485 9.89368 19.2481C8.73211 19.2856 8.1427 17.7449 9.01838 17.0091L16.4227 9.68579C16.5821 9.41357 16.1763 9.08364 15.9393 9.35059L15.9295 9.34166L11.7859 13.4405L11.765 13.4616C11.7584 13.4673 11.751 13.4722 11.7444 13.4778C11.515 13.6529 11.2333 13.7477 10.9435 13.7472C9.78359 13.7911 9.17241 12.226 10.0691 11.4866L16.5033 5.12299L16.4987 5.11812C16.7887 4.88326 16.4273 4.44566 16.1406 4.65004L4.73399 15.9332L4.74879 15.9474C4.6264 16.0688 4.48096 16.1651 4.32079 16.2308C4.16063 16.2964 3.98894 16.33 3.81558 16.3297C2.67497 16.3638 2.04942 14.878 2.8828 14.1015L11.3267 5.75235C11.5847 5.47688 11.1513 5.08561 10.8971 5.34604L10.8848 5.35782L3.86898 12.2967C3.82248 12.3428 3.76722 12.3794 3.70639 12.4042C3.64555 12.4291 3.58035 12.4419 3.51451 12.4418C3.08694 12.4556 2.83967 11.8908 3.16005 11.5954L10.2017 4.62973C10.2163 4.61512 10.232 4.60153 10.2485 4.5891C11.4138 3.56235 13.1553 5.17742 12.071 6.41422L12.0348 6.38212L12.071 6.41788L3.56421 14.8329C3.35515 15.084 3.67265 15.4342 3.93922 15.3168L15.4748 3.9057C16.7509 2.88424 18.3167 4.63704 17.2664 5.75804L17.2717 5.76332L10.7464 12.2207C10.7451 12.2216 10.744 12.2227 10.7431 12.224L10.7373 12.2285C10.4588 12.469 10.8117 12.9013 11.1037 12.7124L15.2698 8.59161L15.2801 8.60177C16.4215 7.55919 18.1314 9.08406 17.2011 10.314Z" fill="white"/>
  <path d="M9.70047 17.739L9.69141 17.747L9.7001 17.7383L9.70047 17.739Z" fill="#CC2929"/>
  <path d="M17.1833 10.3359C17.1648 10.3599 17.1451 10.3839 17.1242 10.4074L17.1172 10.4014L17.1833 10.3359Z" fill="#CC2929"/>
  <path d="M11.7891 13.4438C11.7816 13.4504 11.7736 13.4564 11.7656 13.4625L11.787 13.4414L11.7891 13.4438Z" fill="#CC2929"/>
  <path d="M10.8943 5.34766C10.8906 5.35175 10.8865 5.35584 10.8828 5.36033L10.8943 5.34766Z" fill="#CC2929"/>
  <path d="M13.293 4.05736C14.4256 4.05736 15.3438 3.14909 15.3438 2.02869C15.3438 0.908273 14.4256 0 13.293 0C12.1604 0 11.2422 0.908273 11.2422 2.02869C11.2422 3.14909 12.1604 4.05736 13.293 4.05736Z" fill="#CC2929"/>
</svg>