<svg width="17" height="15" viewBox="0 0 17 15" fill="none" xmlns="http://www.w3.org/2000/svg">
<g id="bxs:phone-call">
<path id="Vector" d="M13.8185 6.87437H15.2004C15.2004 3.66812 12.5244 1.25 8.9751 1.25V2.5C11.7816 2.5 13.8185 4.33937 13.8185 6.87437Z" fill="white"/>
<path id="Vector_2" d="M8.98223 4.99991C10.4353 4.99991 11.055 5.56053 11.055 6.87491H12.4369C12.4369 4.85928 11.2105 3.74991 8.98223 3.74991V4.99991ZM11.3466 8.40178C11.2138 8.29263 11.0394 8.23441 10.86 8.23942C10.6807 8.24444 10.5106 8.31229 10.3855 8.42866L8.73212 9.96678C8.33414 9.89803 7.53405 9.67241 6.71046 8.92928C5.88687 8.18366 5.63745 7.45803 5.56352 7.10053L7.26251 5.60428C7.39131 5.49124 7.46643 5.33729 7.47197 5.17503C7.47752 5.01278 7.41305 4.85493 7.29222 4.73491L4.73924 2.19553C4.61836 2.07513 4.45035 2.0021 4.2709 1.99194C4.09144 1.98179 3.91469 2.03532 3.77816 2.14116L2.27885 3.30428C2.15939 3.41273 2.08809 3.55706 2.07848 3.70991C2.06811 3.86616 1.87051 7.56741 5.04325 10.4387C7.81111 12.9418 11.2782 13.1249 12.233 13.1249C12.3726 13.1249 12.4583 13.1212 12.4811 13.1199C12.65 13.1114 12.8095 13.0466 12.9288 12.938L14.2139 11.5812C14.331 11.4577 14.3903 11.2979 14.3792 11.1356C14.3681 10.9732 14.2875 10.8212 14.1545 10.7118L11.3466 8.40178Z" fill="white"/>
</g>
</svg>
