<svg width="40" height="40" viewBox="0 0 40 40" fill="none" xmlns="http://www.w3.org/2000/svg">
<g clip-path="url(#clip0_1169_23341)">
<circle cx="20" cy="20" r="18.8" fill="black" fill-opacity="0.75" stroke="white" stroke-width="2.4"/>
<path d="M18.8 28C18.8 28.6627 19.3373 29.2 20 29.2C20.6627 29.2 21.2 28.6627 21.2 28H18.8ZM20.8485 11.1515C20.3799 10.6828 19.6201 10.6828 19.1515 11.1515L11.5147 18.7882C11.0461 19.2569 11.0461 20.0167 11.5147 20.4853C11.9833 20.9539 12.7431 20.9539 13.2118 20.4853L20 13.6971L26.7882 20.4853C27.2569 20.9539 28.0167 20.9539 28.4853 20.4853C28.9539 20.0167 28.9539 19.2569 28.4853 18.7882L20.8485 11.1515ZM21.2 28V12H18.8V28H21.2Z" fill="white"/>
</g>
<defs>
<clipPath id="clip0_1169_23341">
<rect width="40" height="40" fill="white"/>
</clipPath>
</defs>
</svg>
