<svg width="66" height="64" viewBox="0 0 66 64" fill="none" xmlns="http://www.w3.org/2000/svg">
<path d="M33 30C29.1723 30.0043 25.5026 31.4807 22.796 34.1052C20.0894 36.7298 18.5669 40.2883 18.5625 44C18.5625 44.5304 18.7798 45.0391 19.1666 45.4142C19.5534 45.7893 20.078 46 20.625 46H45.375C45.922 46 46.4466 45.7893 46.8334 45.4142C47.2202 45.0391 47.4375 44.5304 47.4375 44C47.4331 40.2883 45.9106 36.7298 43.204 34.1052C40.4974 31.4807 36.8277 30.0043 33 30Z" fill="#FFCC48"/>
<path d="M19.8736 28.4437L16.9572 25.6155C16.7666 25.426 16.5391 25.275 16.2878 25.1713C16.0366 25.0677 15.7666 25.0134 15.4935 25.0118C15.2205 25.0101 14.9498 25.061 14.6972 25.1615C14.4446 25.2621 14.2151 25.4103 14.0221 25.5975C13.829 25.7847 13.6762 26.0073 13.5725 26.2522C13.4688 26.4972 13.4163 26.7596 13.418 27.0244C13.4197 27.2892 13.4757 27.551 13.5826 27.7946C13.6894 28.0383 13.8452 28.2589 14.0407 28.4437L16.9572 31.2717C17.3462 31.6361 17.8672 31.8376 18.408 31.8331C18.9488 31.8285 19.4661 31.6182 19.8485 31.2474C20.2309 30.8766 20.4478 30.3749 20.4525 29.8505C20.4572 29.3261 20.2493 28.8209 19.8736 28.4437Z" fill="#FFCC48"/>
<path d="M12.375 42H8.25C7.70299 42 7.17839 42.2107 6.79159 42.5858C6.4048 42.9609 6.1875 43.4696 6.1875 44C6.1875 44.5304 6.4048 45.0391 6.79159 45.4142C7.17839 45.7893 7.70299 46 8.25 46H12.375C12.922 46 13.4466 45.7893 13.8334 45.4142C14.2202 45.0391 14.4375 44.5304 14.4375 44C14.4375 43.4696 14.2202 42.9609 13.8334 42.5858C13.4466 42.2107 12.922 42 12.375 42Z" fill="#FFCC48"/>
<path d="M57.75 42H53.625C53.078 42 52.5534 42.2107 52.1666 42.5858C51.7798 42.9609 51.5625 43.4696 51.5625 44C51.5625 44.5304 51.7798 45.0391 52.1666 45.4142C52.5534 45.7893 53.078 46 53.625 46H57.75C58.297 46 58.8216 45.7893 59.2084 45.4142C59.5952 45.0391 59.8125 44.5304 59.8125 44C59.8125 43.4696 59.5952 42.9609 59.2084 42.5858C58.8216 42.2107 58.297 42 57.75 42Z" fill="#FFCC48"/>
<path d="M51.9588 25.6169C51.572 25.2419 51.0475 25.0312 50.5005 25.0312C49.9536 25.0312 49.429 25.2419 49.0422 25.6169L46.1258 28.4451C45.7501 28.8223 45.5423 29.3275 45.547 29.8519C45.5517 30.3763 45.7686 30.8779 46.151 31.2488C46.5334 31.6196 47.0507 31.8299 47.5915 31.8345C48.1322 31.839 48.6532 31.6374 49.0422 31.2731L51.9588 28.4451C52.3455 28.0701 52.5628 27.5614 52.5628 27.031C52.5628 26.5006 52.3455 25.992 51.9588 25.6169Z" fill="#FFCC48"/>
<path d="M25.5575 14.2918L31.5759 8.359C31.9563 7.99139 32.4677 7.78547 33.0003 7.78547C33.533 7.78547 34.0444 7.99139 34.4247 8.359L40.4431 14.2918C40.8184 14.6647 41.0284 15.1689 41.0273 15.6942C41.0263 16.2194 40.8141 16.7228 40.4373 17.0942C40.0606 17.4656 39.5499 17.6747 39.0171 17.6758C38.4843 17.6769 37.9727 17.4698 37.5944 17.0999L35.0065 14.5291V25.0696C35.0065 25.0696 34.7352 26.8125 33.0002 26.8125C31.2651 26.8125 30.9942 25.0696 30.9942 25.0696V14.5291L28.4062 17.0999C28.0279 17.4698 27.5164 17.6769 26.9836 17.6758C26.4507 17.6747 25.94 17.4656 25.5633 17.0942C25.1865 16.7228 24.9744 16.2194 24.9733 15.6942C24.9722 15.1689 25.1823 14.6647 25.5575 14.2918Z" fill="#FFCC48"/>
</svg>
