<svg width="66" height="40" viewBox="0 0 66 40" fill="none" xmlns="http://www.w3.org/2000/svg">
<path d="M43.5481 29.9453L36.3867 31.3773" stroke="white" stroke-width="0.96" stroke-linecap="round" stroke-linejoin="round"/>
<path d="M37.0927 23.2536L33.714 24.6816C33.4469 24.7916 33.1603 24.8461 32.8715 24.842C32.5828 24.8379 32.2978 24.7751 32.034 24.6576C31.767 24.5377 31.5264 24.3662 31.3259 24.1529C31.1255 23.9397 30.9692 23.6889 30.866 23.415C30.6634 22.8943 30.6592 22.3173 30.8541 21.7937C31.0491 21.2701 31.4296 20.8364 31.9233 20.575L35.3007 18.8883C35.6661 18.6987 36.0673 18.5881 36.4783 18.5637C36.8893 18.5394 37.3007 18.6018 37.686 18.747L44.626 21.4816" stroke="white" stroke-width="0.96" stroke-linecap="round" stroke-linejoin="round"/>
<path d="M23 31.4326H25.6573L30.2187 34.9126C30.4321 35.1535 30.7308 35.302 31.0517 35.3269C31.3726 35.3518 31.6906 35.251 31.9387 35.046L38.312 29.7833C38.5642 29.575 38.7253 29.2767 38.7612 28.9516C38.797 28.6265 38.7048 28.3002 38.504 28.042L35 24.1406" stroke="white" stroke-width="0.96" stroke-linecap="round" stroke-linejoin="round"/>
<path d="M31.5593 20.8123L31.19 20.5083C30.8232 20.239 30.3939 20.0675 29.9426 20.0099C29.4912 19.9522 29.0326 20.0104 28.61 20.179L22.918 22.4536" stroke="white" stroke-width="0.96" stroke-linecap="round" stroke-linejoin="round"/>
<path d="M17.668 33.3305H21.2066C21.6564 33.3546 22.0974 33.1999 22.4335 32.9002C22.7697 32.6005 22.9738 32.1801 23.0013 31.7305V22.9372C22.9755 22.4865 22.7721 22.0644 22.4358 21.7632C22.0994 21.4621 21.6575 21.3065 21.2066 21.3305H17.668" stroke="white" stroke-width="0.96" stroke-linecap="round" stroke-linejoin="round"/>
<path d="M48.3346 33.3306H45.4626C45.0129 33.3546 44.5719 33.1999 44.2357 32.9002C43.8996 32.6005 43.6955 32.1801 43.668 31.7306V22.9306C43.6955 22.481 43.8996 22.0606 44.2357 21.7609C44.5719 21.4612 45.0129 21.3065 45.4626 21.3306H48.3346" stroke="white" stroke-width="0.96" stroke-linecap="round" stroke-linejoin="round"/>
<path d="M32.8397 16.9606L28.7482 12.7339C28.3889 12.378 28.1518 11.9192 28.0703 11.4224C27.9889 10.9257 28.0674 10.4161 28.2946 9.96596C28.4661 9.62618 28.7167 9.33162 29.0257 9.10658C29.3347 8.88153 29.6933 8.73244 30.0719 8.67158C30.4505 8.61073 30.8383 8.63986 31.2033 8.75657C31.5683 8.87328 31.9001 9.07423 32.1713 9.34285L32.8397 10.0048L33.508 9.34285C33.7792 9.07423 34.111 8.87328 34.476 8.75657C34.841 8.63986 35.2288 8.61073 35.6075 8.67158C35.9861 8.73244 36.3446 8.88153 36.6537 9.10658C36.9627 9.33162 37.2133 9.62618 37.3848 9.96596C37.6111 10.4163 37.6891 10.9257 37.6077 11.4222C37.5263 11.9188 37.2897 12.3776 36.9311 12.7339L32.8397 16.9606Z" fill="white"/>
</svg>
