<svg width="66" height="48" viewBox="0 0 66 48" fill="none" xmlns="http://www.w3.org/2000/svg">
<path d="M31.668 13.332H22.3346C21.6274 13.332 20.9491 13.613 20.449 14.1131C19.9489 14.6132 19.668 15.2915 19.668 15.9987V34.6654C19.668 35.3726 19.9489 36.0509 20.449 36.551C20.9491 37.0511 21.6274 37.332 22.3346 37.332H41.0013C41.7085 37.332 42.3868 37.0511 42.8869 36.551C43.387 36.0509 43.668 35.3726 43.668 34.6654V25.332" stroke="white" stroke-width="1.5" stroke-linecap="round" stroke-linejoin="round"/>
<path d="M41.668 11.3323C42.1984 10.8019 42.9178 10.5039 43.668 10.5039C44.4181 10.5039 45.1375 10.8019 45.668 11.3323C46.1984 11.8628 46.4964 12.5822 46.4964 13.3323C46.4964 14.0825 46.1984 14.8019 45.668 15.3323L33.0013 27.999L27.668 29.3323L29.0013 23.999L41.668 11.3323Z" stroke="white" stroke-width="1.5" stroke-linecap="round" stroke-linejoin="round"/>
</svg>
