<svg width="66" height="48" viewBox="0 0 66 48" fill="none" xmlns="http://www.w3.org/2000/svg">
<path d="M32.1544 32.2681C31.7063 32.2681 31.2765 32.0901 30.9597 31.7733C30.6428 31.4564 30.4648 31.0267 30.4648 30.5786V22.1309C30.4648 21.6828 30.6428 21.2531 30.9597 20.9363C31.2765 20.6194 31.7063 20.4414 32.1544 20.4414H43.9811C44.4292 20.4414 44.8589 20.6194 45.1758 20.9363C45.4926 21.2531 45.6706 21.6828 45.6706 22.1309V30.5786C45.6706 31.0267 45.4926 31.4564 45.1758 31.7733C44.8589 32.0901 44.4292 32.2681 43.9811 32.2681H42.2916V37.3367L37.223 32.2681H32.1544Z" stroke="white" stroke-width="1.5" stroke-linecap="round" stroke-linejoin="round"/>
<path d="M27.0862 25.5162L23.7072 28.8953V23.8267H22.0177C21.5696 23.8267 21.1398 23.6487 20.823 23.3319C20.5061 23.015 20.3281 22.5853 20.3281 22.1372V13.6895C20.3281 13.2414 20.5061 12.8117 20.823 12.4949C21.1398 12.178 21.5696 12 22.0177 12H33.8444C34.2925 12 34.7222 12.178 35.039 12.4949C35.3559 12.8117 35.5339 13.2414 35.5339 13.6895V17.0686" stroke="white" stroke-width="1.5" stroke-linecap="round" stroke-linejoin="round"/>
<circle cx="42.8459" cy="15.3849" r="8.61539" fill="#333333"/>
<path d="M45.2812 18.2578V19H40.6279V18.3506L42.957 15.7578C43.2434 15.4388 43.4648 15.1686 43.621 14.9473C43.7805 14.7227 43.8912 14.5225 43.953 14.3467C44.0182 14.1676 44.0507 13.9854 44.0507 13.7998C44.0507 13.5654 44.0019 13.3538 43.9042 13.165C43.8098 12.973 43.6698 12.82 43.4843 12.7061C43.2988 12.5921 43.0741 12.5352 42.8105 12.5352C42.4947 12.5352 42.231 12.597 42.0195 12.7207C41.8111 12.8411 41.6549 13.0104 41.5507 13.2285C41.4465 13.4466 41.3945 13.6973 41.3945 13.9805H40.4911C40.4911 13.5801 40.579 13.2139 40.7548 12.8818C40.9306 12.5498 41.191 12.2861 41.5361 12.0908C41.8811 11.8923 42.3059 11.793 42.8105 11.793C43.2597 11.793 43.6438 11.8727 43.9628 12.0322C44.2818 12.1885 44.526 12.4098 44.6952 12.6963C44.8678 12.9795 44.954 13.3115 44.954 13.6924C44.954 13.9007 44.9182 14.1123 44.8466 14.3271C44.7782 14.5387 44.6822 14.7503 44.5585 14.9619C44.4381 15.1735 44.2965 15.3818 44.1337 15.5869C43.9742 15.792 43.8033 15.9938 43.621 16.1924L41.7167 18.2578H45.2812Z" fill="#F0F0F0"/>
</svg>
