<svg width="66" height="60" viewBox="0 0 66 60" fill="none" xmlns="http://www.w3.org/2000/svg">
<g clip-path="url(#clip0_908_4827)">
<path d="M31.3448 15.9811C32.0107 15.4717 32.8219 15.1882 33.6602 15.172C34.5477 15.1531 35.4354 15.144 36.3231 15.1446C39.1665 15.1446 41.4614 15.2291 43.8339 15.3937C44.8092 15.4594 45.7273 15.8776 46.417 16.5703C47.1067 17.2629 47.5209 18.1827 47.5825 19.1583C47.7601 22.0074 47.8486 24.8613 47.8476 27.716C47.8476 30.6486 47.7562 33.5103 47.5825 36.2737C47.4774 37.9651 46.3345 39.3663 44.7802 39.86" stroke="#E8E8E8" stroke-width="1.5" stroke-linecap="round" stroke-linejoin="round"/>
<path d="M18.3957 40.8417C18.1711 37.2365 18.0895 33.6237 18.1511 30.012C18.1638 28.3772 18.7068 26.7906 19.6985 25.4909C21.123 23.6248 22.7973 21.9635 24.6745 20.5537C25.3414 20.0425 26.1544 19.7582 26.9945 19.7423C27.8813 19.7234 28.7682 19.7143 29.6551 19.7149C32.4985 19.7149 34.7934 19.7994 37.166 19.964C38.1412 20.0297 39.0593 20.4479 39.749 21.1406C40.4387 21.8332 40.853 22.7531 40.9145 23.7286C41.0922 26.5777 41.1806 29.4317 41.1797 32.2863C41.1797 35.2189 41.0883 38.0806 40.9145 40.8417C40.8535 41.8177 40.4395 42.7381 39.7497 43.4312C39.06 44.1243 38.1416 44.5428 37.166 44.6086C34.6661 44.7811 32.1609 44.8642 29.6551 44.8577C27.1501 44.8649 24.6456 44.7818 22.1465 44.6086C21.1709 44.5428 20.2526 44.1243 19.5628 43.4312C18.873 42.7381 18.4567 41.8177 18.3957 40.8417Z" stroke="#E8E8E8" stroke-width="1.5" stroke-linecap="round" stroke-linejoin="round"/>
</g>
<defs>
<clipPath id="clip0_908_4827">
<rect width="32" height="32" fill="white" transform="matrix(-1 0 0 1 49 14)"/>
</clipPath>
</defs>
</svg>
