<svg width="66" height="60" viewBox="0 0 66 60" fill="none" xmlns="http://www.w3.org/2000/svg">
<path d="M33.0017 22.8017L34.6401 20.9265C35.6445 19.5666 37.0985 18.6069 38.7437 18.2178C40.3889 17.8288 42.1187 18.0357 43.6257 18.8017C44.7772 19.4363 45.7359 20.3701 46.4006 21.5045C47.0652 22.6389 47.4111 23.9318 47.4017 25.2465C47.4026 26.3183 47.1693 27.3773 46.7183 28.3495C46.2673 29.3218 45.6094 30.1838 44.7905 30.8753L33.7953 41.6657C33.6922 41.7741 33.5681 41.8605 33.4306 41.9195C33.2931 41.9785 33.145 42.0089 32.9953 42.0089C32.8457 42.0089 32.6976 41.9785 32.5601 41.9195C32.4226 41.8605 32.2985 41.7741 32.1953 41.6657L21.2129 30.8753C20.3941 30.1838 19.7362 29.3218 19.2852 28.3495C18.8342 27.3773 18.6009 26.3183 18.6017 25.2465C18.5924 23.9318 18.9383 22.6389 19.6029 21.5045C20.2676 20.3701 21.2263 19.4363 22.3777 18.8017C23.8837 18.0347 25.6129 17.8263 27.258 18.2136C28.903 18.6008 30.3576 19.5586 31.3633 20.9169L33.0017 22.8017Z" stroke="white" stroke-width="1.5" stroke-linecap="round" stroke-linejoin="round"/>
</svg>
